STARTFONT 2.1
FONT -Adobe-New Century Schoolbook-Bold-I-Normal--17-120-100-100-P-99-ISO10646-1
SIZE 12 100 100
FONTBOUNDINGBOX 23 27 -3 -7
COMMENT $XFree86$
COMMENT ISO10646-1 extension by Markus Kuhn <mkuhn@acm.org>, 2001-03-20
COMMENT 
COMMENT +
COMMENT  Copyright 1984-1989, 1994 Adobe Systems Incorporated.
COMMENT  Copyright 1988, 1994 Digital Equipment Corporation.
COMMENT
COMMENT  Adobe is a trademark of Adobe Systems Incorporated which may be
COMMENT  registered in certain jurisdictions.
COMMENT  Permission to use these trademarks is hereby granted only in
COMMENT  association with the images described in this file.
COMMENT
COMMENT  Permission to use, copy, modify, distribute and sell this software
COMMENT  and its documentation for any purpose and without fee is hereby
COMMENT  granted, provided that the above copyright notices appear in all
COMMENT  copies and that both those copyright notices and this permission
COMMENT  notice appear in supporting documentation, and that the names of
COMMENT  Adobe Systems and Digital Equipment Corporation not be used in
COMMENT  advertising or publicity pertaining to distribution of the software
COMMENT  without specific, written prior permission.  Adobe Systems and
COMMENT  Digital Equipment Corporation make no representations about the
COMMENT  suitability of this software for any purpose.  It is provided "as
COMMENT  is" without express or implied warranty.
COMMENT -
STARTPROPERTIES 26
FOUNDRY "Adobe"
FAMILY_NAME "New Century Schoolbook"
WEIGHT_NAME "Bold"
SLANT "I"
SETWIDTH_NAME "Normal"
ADD_STYLE_NAME ""
PIXEL_SIZE 17
POINT_SIZE 120
RESOLUTION_X 100
RESOLUTION_Y 100
SPACING "P"
AVERAGE_WIDTH 99
CHARSET_REGISTRY "ISO10646"
CHARSET_ENCODING "1"
CAP_HEIGHT 12
X_HEIGHT 8
FONT_ASCENT 14
FONT_DESCENT 3
FACE_NAME "New Century Schoolbook Bold Italic"
COPYRIGHT "Copyright (c) 1984, 1987 Adobe Systems Incorporated. All Rights Reserved. Copyright (c) 1988, 1991 Digital Equipment Corporation. All Rights Reserved."

STARTCHAR char0
ENCODING 0
SWIDTH 870 0
DWIDTH 14 0
BBX 15 11 -1 0
BITMAP
AAAA
0000
8002
0000
8002
0000
8002
0000
8002
0000
AAAA
ENDCHAR
STARTCHAR space
ENCODING 32
SWIDTH 287 0
DWIDTH 4 0
BBX 1 1 1 0
BITMAP
00
ENDCHAR
STARTCHAR exclam
ENCODING 33
SWIDTH 333 0
DWIDTH 6 0
BBX 6 12 0 0
BITMAP
18
3C
38
38
30
30
20
20
00
60
F0
60
ENDCHAR
STARTCHAR quotedbl
ENCODING 34
SWIDTH 400 0
DWIDTH 7 0
BBX 7 5 1 7
BITMAP
CC
EE
CC
88
88
ENDCHAR
STARTCHAR numbersign
ENCODING 35
SWIDTH 606 0
DWIDTH 10 0
BBX 10 12 0 0
BITMAP
0900
0900
0900
0900
7FC0
1200
1200
FF80
2400
2400
2400
2400
ENDCHAR
STARTCHAR dollar
ENCODING 36
SWIDTH 574 0
DWIDTH 9 0
BBX 9 15 0 -1
BITMAP
0200
0200
1F00
2480
6580
6580
7800
3E00
0F00
0B00
D300
D300
9600
7800
2000
ENDCHAR
STARTCHAR percent
ENCODING 37
SWIDTH 889 0
DWIDTH 15 0
BBX 12 12 2 0
BITMAP
3880
7780
6500
C500
CA00
CAE0
75D0
0590
0B10
0B20
1320
11C0
ENDCHAR
STARTCHAR ampersand
ENCODING 38
SWIDTH 889 0
DWIDTH 15 0
BBX 14 12 0 0
BITMAP
03C0
0660
0E60
0EC0
0700
1E7C
7730
63A0
E3A0
F1C4
7BF8
3CF0
ENDCHAR
STARTCHAR quotesingle
ENCODING 39
SWIDTH 287 0
DWIDTH 5 0
BBX 3 5 2 7
BITMAP
C0
E0
C0
80
80
ENDCHAR
STARTCHAR parenleft
ENCODING 40
SWIDTH 407 0
DWIDTH 7 0
BBX 6 14 1 -2
BITMAP
04
18
30
30
60
60
E0
C0
C0
C0
C0
40
40
20
ENDCHAR
STARTCHAR parenright
ENCODING 41
SWIDTH 407 0
DWIDTH 7 0
BBX 6 14 -1 -2
BITMAP
10
08
08
0C
0C
0C
0C
1C
18
18
30
30
60
80
ENDCHAR
STARTCHAR asterisk
ENCODING 42
SWIDTH 500 0
DWIDTH 8 0
BBX 7 7 1 5
BITMAP
10
54
D6
38
D6
54
10
ENDCHAR
STARTCHAR plus
ENCODING 43
SWIDTH 606 0
DWIDTH 10 0
BBX 8 8 1 0
BITMAP
18
18
18
FF
FF
18
18
18
ENDCHAR
STARTCHAR comma
ENCODING 44
SWIDTH 287 0
DWIDTH 5 0
BBX 4 6 0 -3
BITMAP
60
F0
70
20
40
80
ENDCHAR
STARTCHAR hyphen
ENCODING 45
SWIDTH 333 0
DWIDTH 5 0
BBX 4 2 0 3
BITMAP
F0
F0
ENDCHAR
STARTCHAR period
ENCODING 46
SWIDTH 287 0
DWIDTH 5 0
BBX 4 3 0 0
BITMAP
60
F0
60
ENDCHAR
STARTCHAR slash
ENCODING 47
SWIDTH 278 0
DWIDTH 5 0
BBX 5 12 0 0
BITMAP
08
18
10
10
30
20
20
60
40
40
C0
80
ENDCHAR
STARTCHAR zero
ENCODING 48
SWIDTH 574 0
DWIDTH 9 0
BBX 8 12 1 0
BITMAP
1E
37
63
63
E3
C3
C3
C7
C6
C6
EC
78
ENDCHAR
STARTCHAR one
ENCODING 49
SWIDTH 574 0
DWIDTH 9 0
BBX 8 12 0 0
BITMAP
03
3F
06
0E
0C
0C
1C
1C
18
38
38
FE
ENDCHAR
STARTCHAR two
ENCODING 50
SWIDTH 574 0
DWIDTH 9 0
BBX 10 12 -1 0
BITMAP
0F00
1180
21C0
38C0
39C0
1380
0700
0E00
1880
2100
7F00
FE00
ENDCHAR
STARTCHAR three
ENCODING 51
SWIDTH 574 0
DWIDTH 9 0
BBX 9 12 0 0
BITMAP
1F00
3380
7980
3380
0700
1C00
0600
4700
E300
C700
CE00
7C00
ENDCHAR
STARTCHAR four
ENCODING 52
SWIDTH 574 0
DWIDTH 9 0
BBX 9 12 0 0
BITMAP
0180
0380
0700
0B00
1700
2600
4600
8E00
FF00
0C00
0C00
3E00
ENDCHAR
STARTCHAR five
ENCODING 53
SWIDTH 574 0
DWIDTH 9 0
BBX 11 12 0 0
BITMAP
1FE0
1FC0
3000
3000
2000
3E00
0700
0380
6380
E300
C700
7C00
ENDCHAR
STARTCHAR six
ENCODING 54
SWIDTH 574 0
DWIDTH 9 0
BBX 9 12 1 0
BITMAP
0F00
3380
3300
6000
6E00
F700
E300
C300
C700
C600
CE00
7800
ENDCHAR
STARTCHAR seven
ENCODING 55
SWIDTH 574 0
DWIDTH 9 0
BBX 9 12 1 0
BITMAP
7F80
7F00
C200
8600
0400
0C00
1800
3800
3000
7000
7000
6000
ENDCHAR
STARTCHAR eight
ENCODING 56
SWIDTH 574 0
DWIDTH 9 0
BBX 9 12 0 0
BITMAP
0F00
1180
3180
3100
3B00
1E00
3E00
6300
C300
C300
C600
7C00
ENDCHAR
STARTCHAR nine
ENCODING 57
SWIDTH 574 0
DWIDTH 9 0
BBX 9 12 0 0
BITMAP
0F00
1B80
3180
7180
6180
6380
7780
3B00
0300
6600
E600
7800
ENDCHAR
STARTCHAR colon
ENCODING 58
SWIDTH 287 0
DWIDTH 5 0
BBX 5 8 0 0
BITMAP
30
78
30
00
00
60
F0
60
ENDCHAR
STARTCHAR semicolon
ENCODING 59
SWIDTH 287 0
DWIDTH 5 0
BBX 5 11 0 -3
BITMAP
30
78
30
00
00
60
F0
70
20
40
80
ENDCHAR
STARTCHAR less
ENCODING 60
SWIDTH 606 0
DWIDTH 10 0
BBX 8 8 1 0
BITMAP
03
0E
38
E0
E0
38
0E
03
ENDCHAR
STARTCHAR equal
ENCODING 61
SWIDTH 606 0
DWIDTH 10 0
BBX 8 5 1 2
BITMAP
FF
FF
00
FF
FF
ENDCHAR
STARTCHAR greater
ENCODING 62
SWIDTH 606 0
DWIDTH 10 0
BBX 8 8 1 0
BITMAP
C0
70
1C
07
07
1C
70
C0
ENDCHAR
STARTCHAR question
ENCODING 63
SWIDTH 481 0
DWIDTH 8 0
BBX 7 12 1 0
BITMAP
3C
46
8E
9E
3C
70
44
38
00
60
F0
60
ENDCHAR
STARTCHAR at
ENCODING 64
SWIDTH 747 0
DWIDTH 12 0
BBX 12 12 0 0
BITMAP
0F80
38E0
2020
66B0
CD90
9990
9990
9130
DB60
6C90
7060
1FC0
ENDCHAR
STARTCHAR A
ENCODING 65
SWIDTH 741 0
DWIDTH 12 0
BBX 13 12 -1 0
BITMAP
0180
0180
0380
0380
05C0
0DC0
09C0
1FC0
30E0
20E0
60E0
FBF8
ENDCHAR
STARTCHAR B
ENCODING 66
SWIDTH 759 0
DWIDTH 13 0
BBX 13 12 -1 0
BITMAP
3FF0
0E38
0E38
0E38
1C70
1FC0
1CE0
1C70
3870
3870
38E0
FFC0
ENDCHAR
STARTCHAR C
ENCODING 67
SWIDTH 759 0
DWIDTH 13 0
BBX 12 12 1 0
BITMAP
07D0
1C70
3820
7020
7020
E000
E000
E000
E020
6040
7080
1F00
ENDCHAR
STARTCHAR D
ENCODING 68
SWIDTH 833 0
DWIDTH 14 0
BBX 14 12 -1 0
BITMAP
3FE0
0E38
0E18
0E1C
1C1C
1C1C
1C1C
1C38
3838
3870
38E0
FF80
ENDCHAR
STARTCHAR E
ENCODING 69
SWIDTH 741 0
DWIDTH 12 0
BBX 13 12 -1 0
BITMAP
3FF8
0E18
0E10
0E50
1CC0
1F80
1D80
1C90
3830
3820
3860
FFE0
ENDCHAR
STARTCHAR F
ENCODING 70
SWIDTH 704 0
DWIDTH 12 0
BBX 13 12 -1 0
BITMAP
3FF8
0E18
0E10
0E50
1CC0
1F80
1D80
1C80
3800
3800
3800
FE00
ENDCHAR
STARTCHAR G
ENCODING 71
SWIDTH 815 0
DWIDTH 14 0
BBX 13 12 1 0
BITMAP
07D0
1C70
3820
7020
7000
E000
E3F8
E0E0
E0E0
61C0
71C0
1E40
ENDCHAR
STARTCHAR H
ENCODING 72
SWIDTH 870 0
DWIDTH 14 0
BBX 16 12 -1 0
BITMAP
3FBF
0E1C
0E1C
0E1C
1C38
1FF8
1C38
1C38
3870
3870
3870
FDFC
ENDCHAR
STARTCHAR I
ENCODING 73
SWIDTH 444 0
DWIDTH 7 0
BBX 9 12 -1 0
BITMAP
3F80
0E00
0E00
0E00
1C00
1C00
1C00
1C00
3800
3800
3800
FE00
ENDCHAR
STARTCHAR J
ENCODING 74
SWIDTH 667 0
DWIDTH 11 0
BBX 12 12 0 0
BITMAP
07F0
01C0
01C0
01C0
0380
0380
0380
6380
F700
E700
8600
7C00
ENDCHAR
STARTCHAR K
ENCODING 75
SWIDTH 778 0
DWIDTH 13 0
BBX 15 12 -1 0
BITMAP
3FBE
0E18
0E30
0E60
1CC0
1FC0
1FC0
1CE0
38E0
3870
3870
FDFC
ENDCHAR
STARTCHAR L
ENCODING 76
SWIDTH 704 0
DWIDTH 12 0
BBX 12 12 -1 0
BITMAP
3F80
0E00
0E00
0E00
1C00
1C00
1C00
1C10
3830
3820
38E0
FFE0
ENDCHAR
STARTCHAR M
ENCODING 77
SWIDTH 944 0
DWIDTH 16 0
BBX 19 12 -2 0
BITMAP
1F07E0
070780
070F80
070F80
0F9700
0B9700
0BA700
19E700
11CE00
118E00
318E00
FD3F80
ENDCHAR
STARTCHAR N
ENCODING 78
SWIDTH 852 0
DWIDTH 14 0
BBX 16 12 -1 0
BITMAP
3E1F
0F04
0F04
0B8C
1B88
11C8
11D8
10F0
30F0
2070
2060
F820
ENDCHAR
STARTCHAR O
ENCODING 79
SWIDTH 833 0
DWIDTH 14 0
BBX 13 12 1 0
BITMAP
07C0
1C70
3830
7038
7038
E038
E038
E070
E070
60E0
71C0
1F00
ENDCHAR
STARTCHAR P
ENCODING 80
SWIDTH 741 0
DWIDTH 12 0
BBX 13 12 -1 0
BITMAP
3FF0
0E38
0E18
0E38
1C38
1C70
1FC0
1C00
3800
3800
3800
FE00
ENDCHAR
STARTCHAR Q
ENCODING 81
SWIDTH 833 0
DWIDTH 14 0
BBX 13 15 1 -3
BITMAP
07C0
1C70
3830
7038
7038
E038
E038
E630
E970
71E0
71C0
1FC0
01D0
01D0
00E0
ENDCHAR
STARTCHAR R
ENCODING 82
SWIDTH 796 0
DWIDTH 14 0
BBX 14 12 -1 0
BITMAP
3FF8
0E1C
0E1C
0E3C
1C78
1FE0
1C60
1C70
38F0
38F4
38E4
FE78
ENDCHAR
STARTCHAR S
ENCODING 83
SWIDTH 685 0
DWIDTH 11 0
BBX 11 12 0 0
BITMAP
0FA0
18C0
30C0
3040
3C00
3F80
1FC0
43C0
40C0
60C0
F180
9F00
ENDCHAR
STARTCHAR T
ENCODING 84
SWIDTH 722 0
DWIDTH 12 0
BBX 13 12 0 0
BITMAP
7FF8
6738
C710
8710
8E10
0E00
0E00
0E00
1C00
1C00
1C00
7F00
ENDCHAR
STARTCHAR U
ENCODING 85
SWIDTH 833 0
DWIDTH 14 0
BBX 14 12 1 0
BITMAP
FEFC
3830
3830
7020
7020
7060
7040
E040
E040
E0C0
7180
3E00
ENDCHAR
STARTCHAR V
ENCODING 86
SWIDTH 741 0
DWIDTH 12 0
BBX 14 12 0 0
BITMAP
FEFC
3830
3860
3840
1CC0
1C80
1D80
1D00
0E00
0E00
0C00
0C00
ENDCHAR
STARTCHAR W
ENCODING 87
SWIDTH 944 0
DWIDTH 16 0
BBX 18 12 0 0
BITMAP
FDF7C0
38E300
38E200
38E600
39E400
39EC00
1A6800
1E7800
1C7000
1C7000
186000
186000
ENDCHAR
STARTCHAR X
ENCODING 88
SWIDTH 741 0
DWIDTH 12 0
BBX 15 12 -2 0
BITMAP
3FBE
0E18
0E30
0760
07C0
0380
0380
07C0
0DC0
18E0
30E0
FBF8
ENDCHAR
STARTCHAR Y
ENCODING 89
SWIDTH 704 0
DWIDTH 12 0
BBX 13 12 0 0
BITMAP
FEF8
3830
3860
1CC0
1D80
1F00
0E00
0E00
1C00
1C00
1C00
7F00
ENDCHAR
STARTCHAR Z
ENCODING 90
SWIDTH 704 0
DWIDTH 12 0
BBX 13 12 -1 0
BITMAP
1FF8
1CF0
30E0
21C0
0380
0700
0F00
1E10
1C30
3860
71E0
FFE0
ENDCHAR
STARTCHAR bracketleft
ENCODING 91
SWIDTH 407 0
DWIDTH 7 0
BBX 7 14 0 -2
BITMAP
1E
18
18
30
30
30
30
60
60
60
60
C0
C0
F0
ENDCHAR
STARTCHAR backslash
ENCODING 92
SWIDTH 606 0
DWIDTH 10 0
BBX 8 12 1 0
BITMAP
C0
40
60
20
30
10
18
0C
04
06
02
03
ENDCHAR
STARTCHAR bracketright
ENCODING 93
SWIDTH 407 0
DWIDTH 7 0
BBX 7 14 -1 -2
BITMAP
1E
06
06
0C
0C
0C
0C
18
18
18
18
30
30
F0
ENDCHAR
STARTCHAR asciicircum
ENCODING 94
SWIDTH 606 0
DWIDTH 10 0
BBX 8 7 1 5
BITMAP
18
18
3C
24
66
42
C3
ENDCHAR
STARTCHAR underscore
ENCODING 95
SWIDTH 500 0
DWIDTH 8 0
BBX 8 2 -1 -3
BITMAP
FF
FF
ENDCHAR
STARTCHAR grave
ENCODING 96
SWIDTH 333 0
DWIDTH 6 0
BBX 4 3 1 9
BITMAP
C0
60
10
ENDCHAR
STARTCHAR a
ENCODING 97
SWIDTH 667 0
DWIDTH 11 0
BBX 10 8 0 0
BITMAP
1DC0
7780
6380
E380
C300
C700
EF40
7B80
ENDCHAR
STARTCHAR b
ENCODING 98
SWIDTH 611 0
DWIDTH 10 0
BBX 9 12 0 0
BITMAP
7800
3800
3000
3000
7700
7B80
7180
E180
E380
C300
CE00
7800
ENDCHAR
STARTCHAR c
ENCODING 99
SWIDTH 537 0
DWIDTH 9 0
BBX 8 8 1 0
BITMAP
1E
73
67
E2
C0
C0
E4
78
ENDCHAR
STARTCHAR d
ENCODING 100
SWIDTH 667 0
DWIDTH 11 0
BBX 11 12 0 0
BITMAP
01E0
00E0
00C0
01C0
1D80
7780
6380
E380
C300
C700
E740
7B80
ENDCHAR
STARTCHAR e
ENCODING 101
SWIDTH 519 0
DWIDTH 9 0
BBX 8 8 1 0
BITMAP
1E
77
63
CE
FC
C0
E2
7C
ENDCHAR
STARTCHAR f
ENCODING 102
SWIDTH 389 0
DWIDTH 6 0
BBX 10 15 -1 -3
BITMAP
0380
06C0
0CC0
0C00
3F00
1C00
1800
1800
3800
3000
3000
7000
6000
6000
E000
ENDCHAR
STARTCHAR g
ENCODING 103
SWIDTH 611 0
DWIDTH 10 0
BBX 11 12 -1 -3
BITMAP
0060
07A0
1CC0
38E0
38E0
19C0
3F00
6000
3F00
7F80
C180
7F00
ENDCHAR
STARTCHAR h
ENCODING 104
SWIDTH 685 0
DWIDTH 11 0
BBX 10 12 0 0
BITMAP
3C00
1C00
1800
3800
3380
35C0
39C0
7980
7380
6300
E740
E380
ENDCHAR
STARTCHAR i
ENCODING 105
SWIDTH 389 0
DWIDTH 6 0
BBX 6 12 0 0
BITMAP
18
3C
18
00
78
38
30
70
70
E0
E8
70
ENDCHAR
STARTCHAR j
ENCODING 106
SWIDTH 370 0
DWIDTH 6 0
BBX 9 15 -3 -3
BITMAP
0300
0780
0300
0000
0F00
0700
0600
0600
0E00
0E00
0C00
0C00
CC00
D800
7000
ENDCHAR
STARTCHAR k
ENCODING 107
SWIDTH 648 0
DWIDTH 11 0
BBX 10 12 0 0
BITMAP
1E00
0E00
0C00
1C00
1B80
1CC0
39C0
3180
7E00
7700
6340
E380
ENDCHAR
STARTCHAR l
ENCODING 108
SWIDTH 389 0
DWIDTH 6 0
BBX 6 12 0 0
BITMAP
3C
1C
18
38
30
30
70
70
60
E0
E8
70
ENDCHAR
STARTCHAR m
ENCODING 109
SWIDTH 944 0
DWIDTH 15 0
BBX 15 8 -1 0
BITMAP
739C
35EE
39CE
318C
739C
6318
633A
E71C
ENDCHAR
STARTCHAR n
ENCODING 110
SWIDTH 685 0
DWIDTH 11 0
BBX 10 8 0 0
BITMAP
7380
35C0
39C0
7180
7380
6300
E740
E380
ENDCHAR
STARTCHAR o
ENCODING 111
SWIDTH 574 0
DWIDTH 10 0
BBX 9 8 0 0
BITMAP
1E00
7300
6380
E180
C380
E300
6700
3C00
ENDCHAR
STARTCHAR p
ENCODING 112
SWIDTH 648 0
DWIDTH 11 0
BBX 11 11 -1 -3
BITMAP
3DC0
1EE0
1C60
1860
38E0
38C0
3DC0
7700
6000
6000
F000
ENDCHAR
STARTCHAR q
ENCODING 113
SWIDTH 630 0
DWIDTH 10 0
BBX 10 11 0 -3
BITMAP
1EC0
7380
6180
E380
C300
C700
EF00
7A00
0600
0600
0F00
ENDCHAR
STARTCHAR r
ENCODING 114
SWIDTH 519 0
DWIDTH 9 0
BBX 9 8 0 0
BITMAP
3B80
1D80
3980
3800
3000
7000
6000
E000
ENDCHAR
STARTCHAR s
ENCODING 115
SWIDTH 481 0
DWIDTH 8 0
BBX 8 8 0 0
BITMAP
1E
73
63
7C
3E
C6
CE
78
ENDCHAR
STARTCHAR t
ENCODING 116
SWIDTH 407 0
DWIDTH 7 0
BBX 6 11 1 0
BITMAP
18
18
30
FC
70
60
60
E0
C8
D0
E0
ENDCHAR
STARTCHAR u
ENCODING 117
SWIDTH 685 0
DWIDTH 11 0
BBX 10 8 0 0
BITMAP
79C0
39C0
3180
7380
6300
E700
EB40
7380
ENDCHAR
STARTCHAR v
ENCODING 118
SWIDTH 556 0
DWIDTH 9 0
BBX 7 8 1 0
BITMAP
F6
66
62
E6
C6
C4
CC
78
ENDCHAR
STARTCHAR w
ENCODING 119
SWIDTH 833 0
DWIDTH 14 0
BBX 13 8 0 0
BITMAP
79D8
39D8
3188
7398
6710
E730
EB60
73C0
ENDCHAR
STARTCHAR x
ENCODING 120
SWIDTH 574 0
DWIDTH 9 0
BBX 10 8 -1 0
BITMAP
39C0
5AC0
1E00
0C00
0C00
1E00
D680
E700
ENDCHAR
STARTCHAR y
ENCODING 121
SWIDTH 519 0
DWIDTH 9 0
BBX 9 11 -1 -3
BITMAP
3180
7980
B880
1D80
1D00
0E00
0C00
0C00
C800
D000
6000
ENDCHAR
STARTCHAR z
ENCODING 122
SWIDTH 519 0
DWIDTH 9 0
BBX 8 8 0 0
BITMAP
39
7F
46
0C
38
61
FE
9C
ENDCHAR
STARTCHAR braceleft
ENCODING 123
SWIDTH 407 0
DWIDTH 7 0
BBX 6 14 1 -2
BITMAP
0C
10
18
38
30
20
C0
20
60
60
60
C0
80
60
ENDCHAR
STARTCHAR bar
ENCODING 124
SWIDTH 606 0
DWIDTH 10 0
BBX 1 12 5 0
BITMAP
80
80
80
80
80
80
80
80
80
80
80
80
ENDCHAR
STARTCHAR braceright
ENCODING 125
SWIDTH 407 0
DWIDTH 7 0
BBX 6 14 0 -2
BITMAP
18
04
0C
18
18
18
10
0C
30
30
30
20
20
C0
ENDCHAR
STARTCHAR asciitilde
ENCODING 126
SWIDTH 606 0
DWIDTH 10 0
BBX 8 3 1 3
BITMAP
71
FF
8E
ENDCHAR
STARTCHAR space
ENCODING 160
SWIDTH 287 0
DWIDTH 4 0
BBX 1 1 1 0
BITMAP
00
ENDCHAR
STARTCHAR exclamdown
ENCODING 161
SWIDTH 333 0
DWIDTH 6 0
BBX 6 12 -1 -3
BITMAP
18
3C
18
00
10
10
30
30
70
70
F0
60
ENDCHAR
STARTCHAR cent
ENCODING 162
SWIDTH 574 0
DWIDTH 10 0
BBX 9 12 1 -2
BITMAP
0080
0100
1E00
7300
6700
EA00
C800
D200
E400
7800
4000
8000
ENDCHAR
STARTCHAR sterling
ENCODING 163
SWIDTH 574 0
DWIDTH 10 0
BBX 10 12 0 0
BITMAP
0780
0CC0
19C0
1980
1800
1800
7F00
1800
1800
7C40
BF80
6700
ENDCHAR
STARTCHAR currency
ENCODING 164
SWIDTH 574 0
DWIDTH 10 0
BBX 8 8 1 2
BITMAP
5A
FF
66
C3
C3
66
FF
5A
ENDCHAR
STARTCHAR yen
ENCODING 165
SWIDTH 574 0
DWIDTH 10 0
BBX 11 12 1 0
BITMAP
FBE0
70C0
3180
3B00
1E00
1C00
FF00
1800
FF00
3000
3000
FC00
ENDCHAR
STARTCHAR brokenbar
ENCODING 166
SWIDTH 606 0
DWIDTH 10 0
BBX 1 12 5 0
BITMAP
80
80
80
80
80
00
00
80
80
80
80
80
ENDCHAR
STARTCHAR section
ENCODING 167
SWIDTH 500 0
DWIDTH 9 0
BBX 10 15 -1 -3
BITMAP
0780
08C0
19C0
1C80
0E00
3F00
6380
6180
7180
3F00
1C00
4E00
E600
C400
7800
ENDCHAR
STARTCHAR dieresis
ENCODING 168
SWIDTH 333 0
DWIDTH 6 0
BBX 5 2 1 9
BITMAP
D8
D8
ENDCHAR
STARTCHAR copyright
ENCODING 169
SWIDTH 747 0
DWIDTH 12 0
BBX 12 12 0 0
BITMAP
0F00
39C0
6060
4720
C930
9810
9810
C930
4620
6060
39C0
0F00
ENDCHAR
STARTCHAR ordfeminine
ENCODING 170
SWIDTH 412 0
DWIDTH 7 0
BBX 7 7 0 5
BITMAP
3A
6C
C8
DA
6C
00
FC
ENDCHAR
STARTCHAR guillemotleft
ENCODING 171
SWIDTH 481 0
DWIDTH 8 0
BBX 8 6 -1 1
BITMAP
11
33
66
CC
66
22
ENDCHAR
STARTCHAR logicalnot
ENCODING 172
SWIDTH 606 0
DWIDTH 10 0
BBX 8 5 1 2
BITMAP
FF
FF
03
03
03
ENDCHAR
STARTCHAR hyphen
ENCODING 173
SWIDTH 333 0
DWIDTH 5 0
BBX 4 2 0 3
BITMAP
F0
F0
ENDCHAR
STARTCHAR registered
ENCODING 174
SWIDTH 747 0
DWIDTH 12 0
BBX 12 12 0 0
BITMAP
0F00
39C0
6060
5F20
C9B0
8F10
8910
C930
5DA0
6060
39C0
0F00
ENDCHAR
STARTCHAR macron
ENCODING 175
SWIDTH 333 0
DWIDTH 6 0
BBX 5 1 1 10
BITMAP
F8
ENDCHAR
STARTCHAR degree
ENCODING 176
SWIDTH 400 0
DWIDTH 7 0
BBX 5 5 2 7
BITMAP
70
D8
88
D8
70
ENDCHAR
STARTCHAR plusminus
ENCODING 177
SWIDTH 606 0
DWIDTH 10 0
BBX 8 8 1 0
BITMAP
18
18
FF
FF
18
18
FF
FF
ENDCHAR
STARTCHAR twosuperior
ENCODING 178
SWIDTH 344 0
DWIDTH 6 0
BBX 6 7 0 5
BITMAP
38
4C
6C
08
30
7C
F8
ENDCHAR
STARTCHAR threesuperior
ENCODING 179
SWIDTH 344 0
DWIDTH 6 0
BBX 6 7 0 5
BITMAP
38
6C
0C
30
18
D8
70
ENDCHAR
STARTCHAR acute
ENCODING 180
SWIDTH 333 0
DWIDTH 6 0
BBX 4 3 2 9
BITMAP
30
60
80
ENDCHAR
STARTCHAR mu
ENCODING 181
SWIDTH 576 0
DWIDTH 11 0
BBX 13 11 -2 -3
BITMAP
3E30
0E70
0C60
1CE0
18C0
39C8
3AD0
7CE0
4000
4000
C000
ENDCHAR
STARTCHAR paragraph
ENCODING 182
SWIDTH 650 0
DWIDTH 11 0
BBX 10 12 1 0
BITMAP
3FC0
6D00
E900
C900
DB00
7200
1200
1600
3400
2400
2400
FF00
ENDCHAR
STARTCHAR periodcentered
ENCODING 183
SWIDTH 287 0
DWIDTH 5 0
BBX 4 3 0 3
BITMAP
60
F0
60
ENDCHAR
STARTCHAR cedilla
ENCODING 184
SWIDTH 333 0
DWIDTH 5 0
BBX 4 4 -1 -3
BITMAP
60
60
30
E0
ENDCHAR
STARTCHAR onesuperior
ENCODING 185
SWIDTH 344 0
DWIDTH 6 0
BBX 6 7 0 5
BITMAP
0C
7C
18
18
30
30
F8
ENDCHAR
STARTCHAR ordmasculine
ENCODING 186
SWIDTH 356 0
DWIDTH 6 0
BBX 7 7 0 5
BITMAP
3C
66
C6
CC
78
00
FC
ENDCHAR
STARTCHAR guillemotright
ENCODING 187
SWIDTH 481 0
DWIDTH 8 0
BBX 9 6 -1 1
BITMAP
6600
3300
1980
3300
6600
CC00
ENDCHAR
STARTCHAR onequarter
ENCODING 188
SWIDTH 861 0
DWIDTH 14 0
BBX 14 12 0 0
BITMAP
0C20
7C60
18C0
1880
3180
3118
FB38
0658
04B8
0DFC
1830
10F8
ENDCHAR
STARTCHAR onehalf
ENCODING 189
SWIDTH 861 0
DWIDTH 14 0
BBX 13 12 0 0
BITMAP
0C60
7C40
18C0
1980
3100
3370
FA98
06D8
0C10
0860
18F8
31F0
ENDCHAR
STARTCHAR threequarters
ENCODING 190
SWIDTH 861 0
DWIDTH 14 0
BBX 14 12 0 0
BITMAP
3820
6C60
0CC0
3080
1980
D918
7338
0658
04B8
0DFC
1830
10F8
ENDCHAR
STARTCHAR questiondown
ENCODING 191
SWIDTH 481 0
DWIDTH 8 0
BBX 7 12 0 -3
BITMAP
0C
1E
0C
00
38
44
1C
78
F2
E2
C4
78
ENDCHAR
STARTCHAR Agrave
ENCODING 192
SWIDTH 741 0
DWIDTH 12 0
BBX 13 16 -1 0
BITMAP
0600
0300
0080
0000
0180
0180
0380
0380
05C0
0DC0
09C0
1FC0
30E0
20E0
60E0
FBF8
ENDCHAR
STARTCHAR Aacute
ENCODING 193
SWIDTH 741 0
DWIDTH 12 0
BBX 13 16 -1 0
BITMAP
0060
00C0
0100
0000
0180
0180
0380
0380
05C0
0DC0
09C0
1FC0
30E0
20E0
60E0
FBF8
ENDCHAR
STARTCHAR Acircumflex
ENCODING 194
SWIDTH 741 0
DWIDTH 12 0
BBX 13 16 -1 0
BITMAP
0180
03C0
0660
0000
0180
0180
0380
0380
05C0
0DC0
09C0
1FC0
30E0
20E0
60E0
FBF8
ENDCHAR
STARTCHAR Atilde
ENCODING 195
SWIDTH 741 0
DWIDTH 12 0
BBX 13 15 -1 0
BITMAP
03A0
05C0
0000
0180
0180
0380
0380
05C0
0DC0
09C0
1FC0
30E0
20E0
60E0
FBF8
ENDCHAR
STARTCHAR Adieresis
ENCODING 196
SWIDTH 741 0
DWIDTH 12 0
BBX 13 15 -1 0
BITMAP
0660
0660
0000
0180
0180
0380
0380
05C0
0DC0
09C0
1FC0
30E0
20E0
60E0
FBF8
ENDCHAR
STARTCHAR Aring
ENCODING 197
SWIDTH 741 0
DWIDTH 12 0
BBX 13 16 -1 0
BITMAP
0180
0240
0240
0180
0180
0180
0380
0380
05C0
0DC0
09C0
1FC0
30E0
20E0
60E0
FBF8
ENDCHAR
STARTCHAR AE
ENCODING 198
SWIDTH 889 0
DWIDTH 15 0
BBX 16 12 -1 0
BITMAP
07FF
03E3
02E2
06CA
0CD8
09F0
1190
3F92
6386
4384
C31C
EFFC
ENDCHAR
STARTCHAR Ccedilla
ENCODING 199
SWIDTH 759 0
DWIDTH 13 0
BBX 12 15 1 -3
BITMAP
07D0
1C70
3820
7020
7020
E000
E000
E000
E020
6040
7080
1F00
0C00
0600
1C00
ENDCHAR
STARTCHAR Egrave
ENCODING 200
SWIDTH 741 0
DWIDTH 12 0
BBX 13 16 -1 0
BITMAP
0600
0300
0080
0000
3FF8
0E18
0E10
0E50
1CC0
1F80
1D80
1C90
3830
3820
3860
FFE0
ENDCHAR
STARTCHAR Eacute
ENCODING 201
SWIDTH 741 0
DWIDTH 12 0
BBX 13 16 -1 0
BITMAP
0060
00C0
0100
0000
3FF8
0E18
0E10
0E50
1CC0
1F80
1D80
1C90
3830
3820
3860
FFE0
ENDCHAR
STARTCHAR Ecircumflex
ENCODING 202
SWIDTH 741 0
DWIDTH 12 0
BBX 13 16 -1 0
BITMAP
0180
03C0
0660
0000
3FF8
0E18
0E10
0E50
1CC0
1F80
1D80
1C90
3830
3820
3860
FFE0
ENDCHAR
STARTCHAR Edieresis
ENCODING 203
SWIDTH 741 0
DWIDTH 12 0
BBX 13 15 -1 0
BITMAP
0660
0660
0000
3FF8
0E18
0E10
0E50
1CC0
1F80
1D80
1C90
3830
3820
3860
FFE0
ENDCHAR
STARTCHAR Igrave
ENCODING 204
SWIDTH 444 0
DWIDTH 7 0
BBX 9 16 -1 0
BITMAP
1800
0C00
0200
0000
3F80
0E00
0E00
0E00
1C00
1C00
1C00
1C00
3800
3800
3800
FE00
ENDCHAR
STARTCHAR Iacute
ENCODING 205
SWIDTH 444 0
DWIDTH 7 0
BBX 9 16 -1 0
BITMAP
0180
0300
0400
0000
3F80
0E00
0E00
0E00
1C00
1C00
1C00
1C00
3800
3800
3800
FE00
ENDCHAR
STARTCHAR Icircumflex
ENCODING 206
SWIDTH 444 0
DWIDTH 7 0
BBX 9 16 -1 0
BITMAP
0600
0F00
1980
0000
3F80
0E00
0E00
0E00
1C00
1C00
1C00
1C00
3800
3800
3800
FE00
ENDCHAR
STARTCHAR Idieresis
ENCODING 207
SWIDTH 444 0
DWIDTH 7 0
BBX 9 15 -1 0
BITMAP
1980
1980
0000
3F80
0E00
0E00
0E00
1C00
1C00
1C00
1C00
3800
3800
3800
FE00
ENDCHAR
STARTCHAR Eth
ENCODING 208
SWIDTH 833 0
DWIDTH 14 0
BBX 14 12 -1 0
BITMAP
3FE0
0E38
0E18
0E1C
1C1C
7F1C
1C1C
1C38
3838
3870
38E0
FF80
ENDCHAR
STARTCHAR Ntilde
ENCODING 209
SWIDTH 852 0
DWIDTH 14 0
BBX 16 15 -1 0
BITMAP
00E8
0170
0000
3E1F
0F04
0F04
0B8C
1B88
11C8
11D8
10F0
30F0
2070
2060
F820
ENDCHAR
STARTCHAR Ograve
ENCODING 210
SWIDTH 833 0
DWIDTH 14 0
BBX 13 16 1 0
BITMAP
0C00
0600
0100
0000
07C0
1C70
3830
7038
7038
E038
E038
E070
E070
60E0
71C0
1F00
ENDCHAR
STARTCHAR Oacute
ENCODING 211
SWIDTH 833 0
DWIDTH 14 0
BBX 13 16 1 0
BITMAP
0060
00C0
0100
0000
07C0
1C70
3830
7038
7038
E038
E038
E070
E070
60E0
71C0
1F00
ENDCHAR
STARTCHAR Ocircumflex
ENCODING 212
SWIDTH 833 0
DWIDTH 14 0
BBX 13 16 1 0
BITMAP
0180
03C0
0660
0000
07C0
1C70
3830
7038
7038
E038
E038
E070
E070
60E0
71C0
1F00
ENDCHAR
STARTCHAR Otilde
ENCODING 213
SWIDTH 833 0
DWIDTH 14 0
BBX 13 15 1 0
BITMAP
03A0
05C0
0000
07C0
1C70
3830
7038
7038
E038
E038
E070
E070
60E0
71C0
1F00
ENDCHAR
STARTCHAR Odieresis
ENCODING 214
SWIDTH 833 0
DWIDTH 14 0
BBX 13 15 1 0
BITMAP
0660
0660
0000
07C0
1C70
3830
7038
7038
E038
E038
E070
E070
60E0
71C0
1F00
ENDCHAR
STARTCHAR multiply
ENCODING 215
SWIDTH 606 0
DWIDTH 10 0
BBX 8 8 1 0
BITMAP
42
E7
7E
1C
38
7E
E7
42
ENDCHAR
STARTCHAR Oslash
ENCODING 216
SWIDTH 833 0
DWIDTH 14 0
BBX 13 14 1 -1
BITMAP
0008
07F0
1C70
38B0
70B8
7138
E238
E238
E470
E870
68E0
71C0
3F00
4000
ENDCHAR
STARTCHAR Ugrave
ENCODING 217
SWIDTH 833 0
DWIDTH 14 0
BBX 14 16 1 0
BITMAP
0C00
0600
0100
0000
FEFC
3830
3830
7020
7020
7060
7040
E040
E040
E0C0
7180
3E00
ENDCHAR
STARTCHAR Uacute
ENCODING 218
SWIDTH 833 0
DWIDTH 14 0
BBX 14 16 1 0
BITMAP
0060
00C0
0100
0000
FEFC
3830
3830
7020
7020
7060
7040
E040
E040
E0C0
7180
3E00
ENDCHAR
STARTCHAR Ucircumflex
ENCODING 219
SWIDTH 833 0
DWIDTH 14 0
BBX 14 16 1 0
BITMAP
0180
03C0
0660
0000
FEFC
3830
3830
7020
7020
7060
7040
E040
E040
E0C0
7180
3E00
ENDCHAR
STARTCHAR Udieresis
ENCODING 220
SWIDTH 833 0
DWIDTH 14 0
BBX 14 15 1 0
BITMAP
0660
0660
0000
FEFC
3830
3830
7020
7020
7060
7040
E040
E040
E0C0
7180
3E00
ENDCHAR
STARTCHAR Yacute
ENCODING 221
SWIDTH 704 0
DWIDTH 12 0
BBX 13 16 0 0
BITMAP
0060
00C0
0100
0000
FEF8
3830
3860
1CC0
1D80
1F00
0E00
0E00
1C00
1C00
1C00
7F00
ENDCHAR
STARTCHAR Thorn
ENCODING 222
SWIDTH 741 0
DWIDTH 12 0
BBX 12 12 -1 0
BITMAP
3F80
0E00
0FE0
0E70
1C30
1C70
1C70
1CE0
3F80
3800
3800
FE00
ENDCHAR
STARTCHAR germandbls
ENCODING 223
SWIDTH 574 0
DWIDTH 10 0
BBX 10 15 -1 -3
BITMAP
0780
0CC0
0CC0
18C0
1980
1B00
1980
39C0
31C0
31C0
3180
7700
7000
6000
E000
ENDCHAR
STARTCHAR agrave
ENCODING 224
SWIDTH 667 0
DWIDTH 11 0
BBX 11 12 0 0
BITMAP
1800
0C00
0200
0000
1DC0
7780
6380
E380
C300
C720
EF40
7B80
ENDCHAR
STARTCHAR aacute
ENCODING 225
SWIDTH 667 0
DWIDTH 11 0
BBX 11 12 0 0
BITMAP
0180
0300
0400
0000
1DC0
7780
6380
E380
C300
C720
EF40
7B80
ENDCHAR
STARTCHAR acircumflex
ENCODING 226
SWIDTH 667 0
DWIDTH 11 0
BBX 11 12 0 0
BITMAP
0600
0F00
1980
0000
1DC0
7780
6380
E380
C300
C720
EF40
7B80
ENDCHAR
STARTCHAR atilde
ENCODING 227
SWIDTH 667 0
DWIDTH 11 0
BBX 11 11 0 0
BITMAP
0E80
1700
0000
1DC0
7780
6380
E380
C300
C720
EF40
7B80
ENDCHAR
STARTCHAR adieresis
ENCODING 228
SWIDTH 667 0
DWIDTH 11 0
BBX 11 11 0 0
BITMAP
1B00
1B00
0000
1DC0
7780
6380
E380
C300
C720
EF40
7B80
ENDCHAR
STARTCHAR aring
ENCODING 229
SWIDTH 667 0
DWIDTH 11 0
BBX 11 13 0 0
BITMAP
0600
0B00
0B00
0600
0000
1DC0
7780
6380
E380
C300
C720
EF40
7B80
ENDCHAR
STARTCHAR ae
ENCODING 230
SWIDTH 815 0
DWIDTH 14 0
BBX 14 8 0 0
BITMAP
3C78
77DC
338C
0738
7FE0
E700
E798
7DF0
ENDCHAR
STARTCHAR ccedilla
ENCODING 231
SWIDTH 537 0
DWIDTH 9 0
BBX 8 11 0 -3
BITMAP
1E
73
67
E2
C0
C2
E4
78
30
18
70
ENDCHAR
STARTCHAR egrave
ENCODING 232
SWIDTH 519 0
DWIDTH 9 0
BBX 8 12 1 0
BITMAP
30
18
04
00
1E
77
63
CE
FC
C0
E2
7C
ENDCHAR
STARTCHAR eacute
ENCODING 233
SWIDTH 519 0
DWIDTH 9 0
BBX 8 12 1 0
BITMAP
03
06
08
00
1E
77
63
CE
FC
C0
E2
7C
ENDCHAR
STARTCHAR ecircumflex
ENCODING 234
SWIDTH 519 0
DWIDTH 9 0
BBX 8 12 1 0
BITMAP
0C
1E
33
00
1E
77
63
CE
FC
C0
E2
7C
ENDCHAR
STARTCHAR edieresis
ENCODING 235
SWIDTH 519 0
DWIDTH 9 0
BBX 8 11 1 0
BITMAP
1B
1B
00
1E
77
63
CE
F8
C0
E2
7C
ENDCHAR
STARTCHAR igrave
ENCODING 236
SWIDTH 389 0
DWIDTH 6 0
BBX 6 12 0 0
BITMAP
C0
60
10
00
78
38
30
70
60
EC
E8
70
ENDCHAR
STARTCHAR iacute
ENCODING 237
SWIDTH 389 0
DWIDTH 6 0
BBX 6 12 0 0
BITMAP
0C
18
20
00
78
38
30
70
60
EC
E8
70
ENDCHAR
STARTCHAR icircumflex
ENCODING 238
SWIDTH 389 0
DWIDTH 6 0
BBX 6 12 0 0
BITMAP
30
78
CC
00
78
38
30
70
60
EC
E8
70
ENDCHAR
STARTCHAR idieresis
ENCODING 239
SWIDTH 389 0
DWIDTH 6 0
BBX 6 11 0 0
BITMAP
6C
6C
00
78
38
30
70
60
EC
E8
70
ENDCHAR
STARTCHAR eth
ENCODING 240
SWIDTH 574 0
DWIDTH 10 0
BBX 9 13 0 0
BITMAP
6000
1900
0E00
1600
0300
1F00
7380
6380
E180
C380
E300
6700
3C00
ENDCHAR
STARTCHAR ntilde
ENCODING 241
SWIDTH 685 0
DWIDTH 11 0
BBX 11 11 0 0
BITMAP
0E80
1700
0000
F380
35C0
39C0
7180
7380
6320
E740
E380
ENDCHAR
STARTCHAR ograve
ENCODING 242
SWIDTH 574 0
DWIDTH 10 0
BBX 9 12 0 0
BITMAP
3000
1800
0400
0000
1E00
7300
6380
E180
C380
E300
6700
3C00
ENDCHAR
STARTCHAR oacute
ENCODING 243
SWIDTH 574 0
DWIDTH 10 0
BBX 9 12 0 0
BITMAP
0300
0600
0800
0000
1E00
7300
6380
E180
C380
E300
6700
3C00
ENDCHAR
STARTCHAR ocircumflex
ENCODING 244
SWIDTH 574 0
DWIDTH 10 0
BBX 9 12 0 0
BITMAP
0C00
1E00
3300
0000
1E00
7300
6380
E180
C380
E300
6700
3C00
ENDCHAR
STARTCHAR otilde
ENCODING 245
SWIDTH 574 0
DWIDTH 10 0
BBX 9 11 0 0
BITMAP
1D00
2E00
0000
1E00
7300
6380
E180
C380
E300
6700
3C00
ENDCHAR
STARTCHAR odieresis
ENCODING 246
SWIDTH 574 0
DWIDTH 10 0
BBX 9 11 0 0
BITMAP
3300
3300
0000
1E00
7300
6380
E180
C380
E300
6700
3C00
ENDCHAR
STARTCHAR divide
ENCODING 247
SWIDTH 606 0
DWIDTH 10 0
BBX 8 8 1 0
BITMAP
18
18
00
FF
FF
00
18
18
ENDCHAR
STARTCHAR oslash
ENCODING 248
SWIDTH 574 0
DWIDTH 10 0
BBX 9 12 0 -2
BITMAP
0100
0100
1E00
7300
6780
E980
CB80
F300
6700
3C00
4000
4000
ENDCHAR
STARTCHAR ugrave
ENCODING 249
SWIDTH 685 0
DWIDTH 11 0
BBX 11 12 0 0
BITMAP
1800
0C00
0200
0000
79C0
39C0
3180
7380
6300
E720
EB40
7380
ENDCHAR
STARTCHAR uacute
ENCODING 250
SWIDTH 685 0
DWIDTH 11 0
BBX 11 12 0 0
BITMAP
0180
0300
0400
0000
79C0
39C0
3180
7380
6300
E720
EB40
7380
ENDCHAR
STARTCHAR ucircumflex
ENCODING 251
SWIDTH 685 0
DWIDTH 11 0
BBX 11 12 0 0
BITMAP
0600
0F00
1980
0000
79C0
39C0
3180
7380
6300
E720
EB40
7380
ENDCHAR
STARTCHAR udieresis
ENCODING 252
SWIDTH 685 0
DWIDTH 11 0
BBX 11 11 0 0
BITMAP
1980
1980
0000
79C0
39C0
3180
7380
6300
E720
EB40
7380
ENDCHAR
STARTCHAR yacute
ENCODING 253
SWIDTH 519 0
DWIDTH 9 0
BBX 9 15 0 -3
BITMAP
0180
0300
0400
0000
3180
7980
B880
1D80
1D00
0E00
0C00
0C00
C800
D000
6000
ENDCHAR
STARTCHAR thorn
ENCODING 254
SWIDTH 648 0
DWIDTH 11 0
BBX 11 14 -1 -3
BITMAP
1E00
0E00
0C00
1DC0
1EE0
1C60
1860
38E0
38C0
3DC0
7700
6000
6000
F000
ENDCHAR
STARTCHAR ydieresis
ENCODING 255
SWIDTH 519 0
DWIDTH 9 0
BBX 9 14 0 -3
BITMAP
1B00
1B00
0000
3180
7980
B880
1D80
1D00
0E00
0C00
0C00
C800
D000
6000
ENDCHAR
STARTCHAR Amacron
ENCODING 256
SWIDTH 741 0
DWIDTH 12 0
BBX 13 14 -1 0
BITMAP
07C0
0000
0180
0180
0380
0380
05C0
0DC0
09C0
1FC0
30E0
20E0
60E0
FBF8
ENDCHAR
STARTCHAR amacron
ENCODING 257
SWIDTH 667 0
DWIDTH 11 0
BBX 10 10 0 0
BITMAP
1F00
0000
1DC0
7780
6380
E380
C300
C700
EF40
7B80
ENDCHAR
STARTCHAR Abreve
ENCODING 258
SWIDTH 741 0
DWIDTH 12 0
BBX 13 16 -1 0
BITMAP
0440
0440
0380
0000
0180
0180
0380
0380
05C0
0DC0
09C0
1FC0
30E0
20E0
60E0
FBF8
ENDCHAR
STARTCHAR abreve
ENCODING 259
SWIDTH 667 0
DWIDTH 11 0
BBX 10 12 0 0
BITMAP
1100
1100
0E00
0000
1DC0
7780
6380
E380
C300
C700
EF40
7B80
ENDCHAR
STARTCHAR Aogonek
ENCODING 260
SWIDTH 741 0
DWIDTH 12 0
BBX 13 15 -1 -3
BITMAP
0180
0180
0380
0380
05C0
0DC0
09C0
1FC0
30E0
20E0
60E0
FBF8
0200
0400
0700
ENDCHAR
STARTCHAR aogonek
ENCODING 261
SWIDTH 667 0
DWIDTH 11 0
BBX 10 11 0 -3
BITMAP
1DC0
7780
6380
E380
C300
C700
EF40
7B80
0800
1000
1C00
ENDCHAR
STARTCHAR Cacute
ENCODING 262
SWIDTH 759 0
DWIDTH 13 0
BBX 12 16 1 0
BITMAP
0180
0300
0400
0000
07D0
1C70
3820
7020
7020
E000
E000
E000
E020
6040
7080
1F00
ENDCHAR
STARTCHAR cacute
ENCODING 263
SWIDTH 537 0
DWIDTH 9 0
BBX 8 12 1 0
BITMAP
06
0C
10
00
1E
73
67
E2
C0
C0
E4
78
ENDCHAR
STARTCHAR Ccircumflex
ENCODING 264
SWIDTH 759 0
DWIDTH 13 0
BBX 12 16 1 0
BITMAP
0600
0F00
1980
0000
07D0
1C70
3820
7020
7020
E000
E000
E000
E020
6040
7080
1F00
ENDCHAR
STARTCHAR ccircumflex
ENCODING 265
SWIDTH 537 0
DWIDTH 9 0
BBX 8 12 1 0
BITMAP
18
3C
66
00
1E
73
67
E2
C0
C0
E4
78
ENDCHAR
STARTCHAR Cdotaccent
ENCODING 266
SWIDTH 759 0
DWIDTH 13 0
BBX 12 15 1 0
BITMAP
0600
0600
0000
07D0
1C70
3820
7020
7020
E000
E000
E000
E020
6040
7080
1F00
ENDCHAR
STARTCHAR cdotaccent
ENCODING 267
SWIDTH 537 0
DWIDTH 9 0
BBX 8 11 1 0
BITMAP
18
18
00
1E
73
67
E2
C0
C0
E4
78
ENDCHAR
STARTCHAR Ccaron
ENCODING 268
SWIDTH 759 0
DWIDTH 13 0
BBX 12 16 1 0
BITMAP
1980
0F00
0600
0000
07D0
1C70
3820
7020
7020
E000
E000
E000
E020
6040
7080
1F00
ENDCHAR
STARTCHAR ccaron
ENCODING 269
SWIDTH 537 0
DWIDTH 9 0
BBX 8 12 1 0
BITMAP
66
3C
18
00
1E
73
67
E2
C0
C0
E4
78
ENDCHAR
STARTCHAR Dcaron
ENCODING 270
SWIDTH 833 0
DWIDTH 14 0
BBX 14 16 -1 0
BITMAP
0660
03C0
0180
0000
3FE0
0E38
0E18
0E1C
1C1C
1C1C
1C1C
1C38
3838
3870
38E0
FF80
ENDCHAR
STARTCHAR dcaron
ENCODING 271
SWIDTH 893 0
DWIDTH 14 0
BBX 15 12 0 0
BITMAP
01EC
00FE
00CE
01C4
1D88
7790
6380
E380
C300
C700
E740
7B80
ENDCHAR
STARTCHAR Dcroat
ENCODING 272
SWIDTH 833 0
DWIDTH 14 0
BBX 14 12 -1 0
BITMAP
3FE0
0E38
0E18
0E1C
1C1C
7F1C
1C1C
1C38
3838
3870
38E0
FF80
ENDCHAR
STARTCHAR dcroat
ENCODING 273
SWIDTH 667 0
DWIDTH 11 0
BBX 13 12 0 0
BITMAP
01E0
00E0
0FF8
0FF8
1D80
7780
6380
E380
C300
C700
E740
7B80
ENDCHAR
STARTCHAR Emacron
ENCODING 274
SWIDTH 741 0
DWIDTH 12 0
BBX 13 14 -1 0
BITMAP
07C0
0000
3FF8
0E18
0E10
0E50
1CC0
1F80
1D80
1C90
3830
3820
3860
FFE0
ENDCHAR
STARTCHAR emacron
ENCODING 275
SWIDTH 519 0
DWIDTH 9 0
BBX 8 10 1 0
BITMAP
3E
00
1E
77
63
CE
FC
C0
E2
7C
ENDCHAR
STARTCHAR Ebreve
ENCODING 276
SWIDTH 741 0
DWIDTH 12 0
BBX 13 16 -1 0
BITMAP
0440
0440
0380
0000
3FF8
0E18
0E10
0E50
1CC0
1F80
1D80
1C90
3830
3820
3860
FFE0
ENDCHAR
STARTCHAR ebreve
ENCODING 277
SWIDTH 519 0
DWIDTH 9 0
BBX 8 12 1 0
BITMAP
22
22
1C
00
1E
77
63
CE
FC
C0
E2
7C
ENDCHAR
STARTCHAR Edotaccent
ENCODING 278
SWIDTH 741 0
DWIDTH 12 0
BBX 13 15 -1 0
BITMAP
0300
0300
0000
3FF8
0E18
0E10
0E50
1CC0
1F80
1D80
1C90
3830
3820
3860
FFE0
ENDCHAR
STARTCHAR edotaccent
ENCODING 279
SWIDTH 519 0
DWIDTH 9 0
BBX 8 11 1 0
BITMAP
18
18
00
1E
77
63
CE
FC
C0
E2
7C
ENDCHAR
STARTCHAR Eogonek
ENCODING 280
SWIDTH 741 0
DWIDTH 12 0
BBX 13 15 -1 -3
BITMAP
3FF8
0E18
0E10
0E50
1CC0
1F80
1D80
1C90
3830
3820
3860
FFE0
0200
0400
0700
ENDCHAR
STARTCHAR eogonek
ENCODING 281
SWIDTH 519 0
DWIDTH 9 0
BBX 8 11 1 -3
BITMAP
1E
77
63
CE
FC
C0
E2
7C
10
20
38
ENDCHAR
STARTCHAR Ecaron
ENCODING 282
SWIDTH 741 0
DWIDTH 12 0
BBX 13 16 -1 0
BITMAP
0CC0
0780
0300
0000
3FF8
0E18
0E10
0E50
1CC0
1F80
1D80
1C90
3830
3820
3860
FFE0
ENDCHAR
STARTCHAR ecaron
ENCODING 283
SWIDTH 519 0
DWIDTH 9 0
BBX 8 12 1 0
BITMAP
66
3C
18
00
1E
77
63
CE
FC
C0
E2
7C
ENDCHAR
STARTCHAR Gcircumflex
ENCODING 284
SWIDTH 815 0
DWIDTH 14 0
BBX 13 16 1 0
BITMAP
0300
0780
0CC0
0000
07D0
1C70
3820
7020
7000
E000
E3F8
E0E0
E0E0
61C0
71C0
1E40
ENDCHAR
STARTCHAR gcircumflex
ENCODING 285
SWIDTH 611 0
DWIDTH 10 0
BBX 11 16 -1 -3
BITMAP
0300
0780
0CC0
0000
0060
07A0
1CC0
38E0
38E0
19C0
3F00
6000
3F00
7F80
C180
7F00
ENDCHAR
STARTCHAR Gbreve
ENCODING 286
SWIDTH 815 0
DWIDTH 14 0
BBX 13 16 1 0
BITMAP
0880
0880
0700
0000
07D0
1C70
3820
7020
7000
E000
E3F8
E0E0
E0E0
61C0
71C0
1E40
ENDCHAR
STARTCHAR gbreve
ENCODING 287
SWIDTH 611 0
DWIDTH 10 0
BBX 11 16 -1 -3
BITMAP
0880
0880
0700
0000
0060
07A0
1CC0
38E0
38E0
19C0
3F00
6000
3F00
7F80
C180
7F00
ENDCHAR
STARTCHAR Gdotaccent
ENCODING 288
SWIDTH 815 0
DWIDTH 14 0
BBX 13 15 1 0
BITMAP
0300
0300
0000
07D0
1C70
3820
7020
7000
E000
E3F8
E0E0
E0E0
61C0
71C0
1E40
ENDCHAR
STARTCHAR gdotaccent
ENCODING 289
SWIDTH 611 0
DWIDTH 10 0
BBX 11 15 -1 -3
BITMAP
0300
0300
0000
0060
07A0
1CC0
38E0
38E0
19C0
3F00
6000
3F00
7F80
C180
7F00
ENDCHAR
STARTCHAR Gcommaaccent
ENCODING 290
SWIDTH 815 0
DWIDTH 14 0
BBX 13 19 1 -7
BITMAP
07D0
1C70
3820
7020
7000
E000
E3F8
E0E0
E0E0
61C0
71C0
1E40
0000
0600
0F00
0700
0200
0400
0800
ENDCHAR
STARTCHAR gcommaaccent
ENCODING 291
SWIDTH 611 0
DWIDTH 10 0
BBX 11 19 -1 -3
BITMAP
0080
0100
0200
0700
0780
0300
0000
0060
07A0
1CC0
38E0
38E0
19C0
3F00
6000
3F00
7F80
C180
7F00
ENDCHAR
STARTCHAR Hcircumflex
ENCODING 292
SWIDTH 870 0
DWIDTH 14 0
BBX 16 16 -1 0
BITMAP
00C0
01E0
0330
0000
3FBF
0E1C
0E1C
0E1C
1C38
1FF8
1C38
1C38
3870
3870
3870
FDFC
ENDCHAR
STARTCHAR hcircumflex
ENCODING 293
SWIDTH 685 0
DWIDTH 11 0
BBX 10 16 0 0
BITMAP
1800
3C00
6600
0000
3C00
1C00
1800
3800
3380
35C0
39C0
7980
7380
6300
E740
E380
ENDCHAR
STARTCHAR Hbar
ENCODING 294
SWIDTH 870 0
DWIDTH 14 0
BBX 16 12 -1 0
BITMAP
3FBF
0E1C
0E1C
FFFF
FFFF
1FF8
1C38
1C38
3870
3870
3870
FDFC
ENDCHAR
STARTCHAR hbar
ENCODING 295
SWIDTH 685 0
DWIDTH 11 0
BBX 11 12 -1 0
BITMAP
1E00
0E00
FF80
FF80
19C0
1AE0
1CE0
3CC0
39C0
3180
73A0
71C0
ENDCHAR
STARTCHAR Itilde
ENCODING 296
SWIDTH 444 0
DWIDTH 7 0
BBX 9 15 -1 0
BITMAP
1D00
2E00
0000
3F80
0E00
0E00
0E00
1C00
1C00
1C00
1C00
3800
3800
3800
FE00
ENDCHAR
STARTCHAR itilde
ENCODING 297
SWIDTH 389 0
DWIDTH 6 0
BBX 6 11 0 0
BITMAP
74
B8
00
F8
38
30
70
70
64
68
70
ENDCHAR
STARTCHAR Imacron
ENCODING 298
SWIDTH 444 0
DWIDTH 7 0
BBX 9 14 -1 0
BITMAP
1F00
0000
3F80
0E00
0E00
0E00
1C00
1C00
1C00
1C00
3800
3800
3800
FE00
ENDCHAR
STARTCHAR imacron
ENCODING 299
SWIDTH 389 0
DWIDTH 6 0
BBX 6 10 0 0
BITMAP
F8
00
F8
38
30
70
70
64
68
70
ENDCHAR
STARTCHAR Ibreve
ENCODING 300
SWIDTH 444 0
DWIDTH 7 0
BBX 9 16 -1 0
BITMAP
1100
1100
0E00
0000
3F80
0E00
0E00
0E00
1C00
1C00
1C00
1C00
3800
3800
3800
FE00
ENDCHAR
STARTCHAR ibreve
ENCODING 301
SWIDTH 389 0
DWIDTH 6 0
BBX 6 12 0 0
BITMAP
88
88
70
00
F8
38
30
70
70
64
68
70
ENDCHAR
STARTCHAR Iogonek
ENCODING 302
SWIDTH 444 0
DWIDTH 7 0
BBX 9 15 -1 -3
BITMAP
3F80
0E00
0E00
0E00
1C00
1C00
1C00
1C00
3800
3800
3800
FE00
1000
2000
3800
ENDCHAR
STARTCHAR iogonek
ENCODING 303
SWIDTH 389 0
DWIDTH 6 0
BBX 6 15 0 -3
BITMAP
18
3C
18
00
78
38
30
70
70
E0
E8
70
20
40
70
ENDCHAR
STARTCHAR Idotaccent
ENCODING 304
SWIDTH 444 0
DWIDTH 7 0
BBX 9 15 -1 0
BITMAP
0C00
0C00
0000
3F80
0E00
0E00
0E00
1C00
1C00
1C00
1C00
3800
3800
3800
FE00
ENDCHAR
STARTCHAR dotlessi
ENCODING 305
SWIDTH 389 0
DWIDTH 6 0
BBX 6 8 0 0
BITMAP
F8
38
30
70
70
64
68
70
ENDCHAR
STARTCHAR IJ
ENCODING 306
SWIDTH 1089 0
DWIDTH 18 0
BBX 20 12 -1 0
BITMAP
3F87F0
0E01C0
0E01C0
0E01C0
1C0380
1C0380
1C0380
1C6380
38F700
38E700
388600
FE7C00
ENDCHAR
STARTCHAR ij
ENCODING 307
SWIDTH 740 0
DWIDTH 12 0
BBX 12 15 0 -3
BITMAP
1860
3CF0
1860
0000
79E0
38E0
30C0
70C0
71C0
E1C0
E980
7180
1980
1B00
0E00
ENDCHAR
STARTCHAR Jcircumflex
ENCODING 308
SWIDTH 667 0
DWIDTH 11 0
BBX 12 16 0 0
BITMAP
0180
03C0
0660
0000
07F0
01C0
01C0
01C0
0380
0380
0380
6380
F700
E700
8600
7C00
ENDCHAR
STARTCHAR jcircumflex
ENCODING 309
SWIDTH 370 0
DWIDTH 6 0
BBX 9 15 -3 -3
BITMAP
0600
0F00
1980
0000
0F00
0700
0600
0600
0E00
0E00
0C00
0C00
CC00
D800
7000
ENDCHAR
STARTCHAR Kcommaaccent
ENCODING 310
SWIDTH 778 0
DWIDTH 13 0
BBX 15 19 -1 -7
BITMAP
3FBE
0E18
0E30
0E60
1CC0
1FC0
1FC0
1CE0
38E0
3870
3870
FDFC
0000
0300
0780
0380
0100
0200
0400
ENDCHAR
STARTCHAR kcommaaccent
ENCODING 311
SWIDTH 648 0
DWIDTH 11 0
BBX 10 19 0 -7
BITMAP
1E00
0E00
0C00
1C00
1B80
1CC0
39C0
3180
7E00
7700
6340
E380
0000
0C00
1E00
0E00
0400
0800
1000
ENDCHAR
STARTCHAR kgreenlandic
ENCODING 312
SWIDTH 648 0
DWIDTH 11 0
BBX 10 8 0 0
BITMAP
1B80
1CC0
39C0
3180
7E00
7700
6340
E380
ENDCHAR
STARTCHAR Lacute
ENCODING 313
SWIDTH 704 0
DWIDTH 12 0
BBX 12 16 -1 0
BITMAP
0180
0300
0400
0000
3F80
0E00
0E00
0E00
1C00
1C00
1C00
1C10
3830
3820
38E0
FFE0
ENDCHAR
STARTCHAR lacute
ENCODING 314
SWIDTH 389 0
DWIDTH 6 0
BBX 7 16 0 0
BITMAP
06
0C
10
00
3C
1C
18
38
30
30
70
70
60
E0
E8
70
ENDCHAR
STARTCHAR Lcommaaccent
ENCODING 315
SWIDTH 704 0
DWIDTH 12 0
BBX 12 19 -1 -7
BITMAP
3F80
0E00
0E00
0E00
1C00
1C00
1C00
1C10
3830
3820
38E0
FFE0
0000
0600
0F00
0700
0200
0400
0800
ENDCHAR
STARTCHAR lcommaaccent
ENCODING 316
SWIDTH 389 0
DWIDTH 6 0
BBX 6 19 0 -7
BITMAP
3C
1C
18
38
30
30
70
70
60
E0
E8
70
00
60
F0
70
20
40
80
ENDCHAR
STARTCHAR Lcaron
ENCODING 317
SWIDTH 928 0
DWIDTH 15 0
BBX 17 12 -1 0
BITMAP
3F8300
0E0780
0E0380
0E0100
1C0200
1C0400
1C0000
1C1000
383000
382000
38E000
FFE000
ENDCHAR
STARTCHAR lcaron
ENCODING 318
SWIDTH 629 0
DWIDTH 10 0
BBX 11 12 0 0
BITMAP
3CC0
1DE0
18E0
3840
3080
3100
7000
7000
6000
E000
E800
7000
ENDCHAR
STARTCHAR Ldot
ENCODING 319
SWIDTH 956 0
DWIDTH 16 0
BBX 16 12 -1 0
BITMAP
3F80
0E00
0E00
0E00
1C00
1C00
1C06
1C1F
3836
3820
38E0
FFE0
ENDCHAR
STARTCHAR ldot
ENCODING 320
SWIDTH 657 0
DWIDTH 11 0
BBX 10 12 0 0
BITMAP
3C00
1C00
1800
3800
3000
3000
7180
73C0
6180
E000
E800
7000
ENDCHAR
STARTCHAR Lslash
ENCODING 321
SWIDTH 704 0
DWIDTH 12 0
BBX 12 12 -1 0
BITMAP
3F80
0E00
0E00
0E00
1C80
1F00
7C00
9C10
3830
3860
38E0
FFE0
ENDCHAR
STARTCHAR lslash
ENCODING 322
SWIDTH 389 0
DWIDTH 6 0
BBX 8 12 -1 0
BITMAP
3E
0E
0C
1C
1F
F8
38
38
30
72
74
38
ENDCHAR
STARTCHAR Nacute
ENCODING 323
SWIDTH 852 0
DWIDTH 14 0
BBX 16 16 -1 0
BITMAP
0060
00C0
0100
0000
3E1F
0F04
0F04
0B8C
1B88
11C8
11D8
10F0
30F0
2070
2060
F820
ENDCHAR
STARTCHAR nacute
ENCODING 324
SWIDTH 685 0
DWIDTH 11 0
BBX 10 12 0 0
BITMAP
0300
0600
0800
0000
7380
35C0
39C0
7180
7380
6300
E740
E380
ENDCHAR
STARTCHAR Ncommaaccent
ENCODING 325
SWIDTH 852 0
DWIDTH 14 0
BBX 16 19 -1 -7
BITMAP
3E1F
0F04
0F04
0B8C
1B88
11C8
11D8
10F0
30F0
2070
2060
F820
0000
0300
0780
0380
0100
0200
0400
ENDCHAR
STARTCHAR ncommaaccent
ENCODING 326
SWIDTH 685 0
DWIDTH 11 0
BBX 10 15 0 -7
BITMAP
7380
35C0
39C0
7180
7380
6300
E740
E380
0000
0C00
1E00
0E00
0400
0800
1000
ENDCHAR
STARTCHAR Ncaron
ENCODING 327
SWIDTH 852 0
DWIDTH 14 0
BBX 16 16 -1 0
BITMAP
0660
03C0
0180
0000
3E1F
0F04
0F04
0B8C
1B88
11C8
11D8
10F0
30F0
2070
2060
F820
ENDCHAR
STARTCHAR ncaron
ENCODING 328
SWIDTH 685 0
DWIDTH 11 0
BBX 10 12 0 0
BITMAP
3300
1E00
0C00
0000
7380
35C0
39C0
7180
7380
6300
E740
E380
ENDCHAR
STARTCHAR napostrophe
ENCODING 329
SWIDTH 931 0
DWIDTH 15 0
BBX 13 12 1 0
BITMAP
6000
F000
7000
2000
4E70
86B8
0738
0E30
0E70
0C60
1CE8
1C70
ENDCHAR
STARTCHAR Eng
ENCODING 330
SWIDTH 852 0
DWIDTH 14 0
BBX 16 15 -1 -3
BITMAP
3E1F
0F04
0F04
0B8C
1B88
11C8
11D8
10F0
30F0
2070
2060
F860
0660
06C0
0380
ENDCHAR
STARTCHAR eng
ENCODING 331
SWIDTH 685 0
DWIDTH 11 0
BBX 10 11 0 -3
BITMAP
7380
35C0
39C0
7180
7380
6380
E300
E300
3300
3600
1C00
ENDCHAR
STARTCHAR Omacron
ENCODING 332
SWIDTH 833 0
DWIDTH 14 0
BBX 13 14 1 0
BITMAP
0F80
0000
07C0
1C70
3830
7038
7038
E038
E038
E070
E070
60E0
71C0
1F00
ENDCHAR
STARTCHAR omacron
ENCODING 333
SWIDTH 574 0
DWIDTH 10 0
BBX 9 10 0 0
BITMAP
3E00
0000
1E00
7300
6380
E180
C380
E300
6700
3C00
ENDCHAR
STARTCHAR Obreve
ENCODING 334
SWIDTH 833 0
DWIDTH 14 0
BBX 13 16 1 0
BITMAP
0880
0880
0700
0000
07C0
1C70
3830
7038
7038
E038
E038
E070
E070
60E0
71C0
1F00
ENDCHAR
STARTCHAR obreve
ENCODING 335
SWIDTH 574 0
DWIDTH 10 0
BBX 9 12 0 0
BITMAP
2200
2200
1C00
0000
1E00
7300
6380
E180
C380
E300
6700
3C00
ENDCHAR
STARTCHAR Ohungarumlaut
ENCODING 336
SWIDTH 833 0
DWIDTH 14 0
BBX 13 16 1 0
BITMAP
0360
06C0
0900
0000
07C0
1C70
3830
7038
7038
E038
E038
E070
E070
60E0
71C0
1F00
ENDCHAR
STARTCHAR ohungarumlaut
ENCODING 337
SWIDTH 574 0
DWIDTH 10 0
BBX 9 12 0 0
BITMAP
0D80
1B00
2400
0000
1E00
7300
6380
E180
C380
E300
6700
3C00
ENDCHAR
STARTCHAR OE
ENCODING 338
SWIDTH 963 0
DWIDTH 16 0
BBX 16 12 0 0
BITMAP
07FF
1CE3
38C2
70CA
71D8
E1F0
E1F0
E192
E386
6384
731C
1FFC
ENDCHAR
STARTCHAR oe
ENCODING 339
SWIDTH 852 0
DWIDTH 14 0
BBX 14 8 0 0
BITMAP
1E78
73CC
618C
E318
C3E0
E300
6788
3DF0
ENDCHAR
STARTCHAR Racute
ENCODING 340
SWIDTH 796 0
DWIDTH 14 0
BBX 14 16 -1 0
BITMAP
0060
00C0
0100
0000
3FF8
0E1C
0E1C
0E3C
1C78
1FE0
1C60
1C70
38F0
38F4
38E4
FE78
ENDCHAR
STARTCHAR racute
ENCODING 341
SWIDTH 519 0
DWIDTH 9 0
BBX 9 12 0 0
BITMAP
0300
0600
0800
0000
3B80
1D80
3980
3800
3000
7000
6000
E000
ENDCHAR
STARTCHAR Rcommaaccent
ENCODING 342
SWIDTH 796 0
DWIDTH 14 0
BBX 14 19 -1 -7
BITMAP
3FF8
0E1C
0E1C
0E3C
1C78
1FE0
1C60
1C70
38F0
38F4
38E4
FE78
0000
0300
0780
0380
0100
0200
0400
ENDCHAR
STARTCHAR rcommaaccent
ENCODING 343
SWIDTH 519 0
DWIDTH 9 0
BBX 9 15 0 -7
BITMAP
3B80
1D80
3980
3800
3000
7000
6000
E000
0000
3000
7800
3800
1000
2000
4000
ENDCHAR
STARTCHAR Rcaron
ENCODING 344
SWIDTH 796 0
DWIDTH 14 0
BBX 14 16 -1 0
BITMAP
0660
03C0
0180
0000
3FF8
0E1C
0E1C
0E3C
1C78
1FE0
1C60
1C70
38F0
38F4
38E4
FE78
ENDCHAR
STARTCHAR rcaron
ENCODING 345
SWIDTH 519 0
DWIDTH 9 0
BBX 9 12 0 0
BITMAP
3300
1E00
0C00
0000
3B80
1D80
3980
3800
3000
7000
6000
E000
ENDCHAR
STARTCHAR Sacute
ENCODING 346
SWIDTH 685 0
DWIDTH 11 0
BBX 11 16 0 0
BITMAP
0180
0300
0400
0000
0FA0
18C0
30C0
3040
3C00
3F80
1FC0
43C0
40C0
60C0
F180
9F00
ENDCHAR
STARTCHAR sacute
ENCODING 347
SWIDTH 481 0
DWIDTH 8 0
BBX 8 12 0 0
BITMAP
06
0C
10
00
1E
73
63
7C
3E
C6
CE
78
ENDCHAR
STARTCHAR Scircumflex
ENCODING 348
SWIDTH 685 0
DWIDTH 11 0
BBX 11 16 0 0
BITMAP
0600
0F00
1980
0000
0FA0
18C0
30C0
3040
3C00
3F80
1FC0
43C0
40C0
60C0
F180
9F00
ENDCHAR
STARTCHAR scircumflex
ENCODING 349
SWIDTH 481 0
DWIDTH 8 0
BBX 8 12 0 0
BITMAP
18
3C
66
00
1E
73
63
7C
3E
C6
CE
78
ENDCHAR
STARTCHAR Scedilla
ENCODING 350
SWIDTH 685 0
DWIDTH 11 0
BBX 11 15 0 -3
BITMAP
0FA0
18C0
30C0
3040
3C00
3F80
1FC0
43C0
40C0
60C0
F180
9F00
0C00
0600
1C00
ENDCHAR
STARTCHAR scedilla
ENCODING 351
SWIDTH 481 0
DWIDTH 8 0
BBX 8 11 0 -3
BITMAP
1E
73
63
7C
3E
C6
CE
78
18
0C
38
ENDCHAR
STARTCHAR Scaron
ENCODING 352
SWIDTH 685 0
DWIDTH 11 0
BBX 11 13 -1 0
BITMAP
0CC0
0780
0300
0000
0F60
19C0
3040
3E00
1F80
47C0
60C0
F180
9F00
ENDCHAR
STARTCHAR scaron
ENCODING 353
SWIDTH 481 0
DWIDTH 8 0
BBX 8 12 0 0
BITMAP
33
1E
0C
00
1E
73
63
78
1E
C6
CE
78
ENDCHAR
STARTCHAR Tcommaaccent
ENCODING 354
SWIDTH 722 0
DWIDTH 12 0
BBX 13 15 0 -3
BITMAP
7FF8
6738
C710
8710
8E10
0E00
0E00
0E00
1C00
1C00
1C00
7F00
0C00
0600
1C00
ENDCHAR
STARTCHAR tcommaaccent
ENCODING 355
SWIDTH 407 0
DWIDTH 7 0
BBX 6 14 1 -3
BITMAP
18
18
30
FC
70
60
60
E0
C8
D0
E0
60
30
E0
ENDCHAR
STARTCHAR Tcaron
ENCODING 356
SWIDTH 722 0
DWIDTH 12 0
BBX 13 16 0 0
BITMAP
0CC0
0780
0300
0000
7FF8
6738
C710
8710
8E10
0E00
0E00
0E00
1C00
1C00
1C00
7F00
ENDCHAR
STARTCHAR tcaron
ENCODING 357
SWIDTH 646 0
DWIDTH 11 0
BBX 11 12 1 0
BITMAP
00C0
19E0
18E0
3040
FC80
7100
6000
6000
E000
C800
D000
E000
ENDCHAR
STARTCHAR Tbar
ENCODING 358
SWIDTH 722 0
DWIDTH 12 0
BBX 13 12 0 0
BITMAP
7FF8
6738
C710
8710
8E10
3FE0
3FE0
0E00
1C00
1C00
1C00
7F00
ENDCHAR
STARTCHAR tbar
ENCODING 359
SWIDTH 407 0
DWIDTH 7 0
BBX 9 11 0 0
BITMAP
0C00
0C00
1800
7E00
3800
3000
FF80
FF80
6400
6800
7000
ENDCHAR
STARTCHAR Utilde
ENCODING 360
SWIDTH 833 0
DWIDTH 14 0
BBX 14 15 1 0
BITMAP
0740
0B80
0000
FEFC
3830
3830
7020
7020
7060
7040
E040
E040
E0C0
7180
3E00
ENDCHAR
STARTCHAR utilde
ENCODING 361
SWIDTH 685 0
DWIDTH 11 0
BBX 10 11 0 0
BITMAP
0E80
1700
0000
79C0
39C0
3180
7380
6300
E700
EB40
7380
ENDCHAR
STARTCHAR Umacron
ENCODING 362
SWIDTH 833 0
DWIDTH 14 0
BBX 14 14 1 0
BITMAP
0F80
0000
FEFC
3830
3830
7020
7020
7060
7040
E040
E040
E0C0
7180
3E00
ENDCHAR
STARTCHAR umacron
ENCODING 363
SWIDTH 685 0
DWIDTH 11 0
BBX 10 10 0 0
BITMAP
1F00
0000
79C0
39C0
3180
7380
6300
E700
EB40
7380
ENDCHAR
STARTCHAR Ubreve
ENCODING 364
SWIDTH 833 0
DWIDTH 14 0
BBX 14 16 1 0
BITMAP
0880
0880
0700
0000
FEFC
3830
3830
7020
7020
7060
7040
E040
E040
E0C0
7180
3E00
ENDCHAR
STARTCHAR ubreve
ENCODING 365
SWIDTH 685 0
DWIDTH 11 0
BBX 10 12 0 0
BITMAP
1100
1100
0E00
0000
79C0
39C0
3180
7380
6300
E700
EB40
7380
ENDCHAR
STARTCHAR Uring
ENCODING 366
SWIDTH 833 0
DWIDTH 14 0
BBX 14 17 1 0
BITMAP
0300
0480
0480
0300
0000
FEFC
3830
3830
7020
7020
7060
7040
E040
E040
E0C0
7180
3E00
ENDCHAR
STARTCHAR uring
ENCODING 367
SWIDTH 685 0
DWIDTH 11 0
BBX 10 13 0 0
BITMAP
0C00
1200
1200
0C00
0000
79C0
39C0
3180
7380
6300
E700
EB40
7380
ENDCHAR
STARTCHAR Uhungarumlaut
ENCODING 368
SWIDTH 833 0
DWIDTH 14 0
BBX 14 16 1 0
BITMAP
0360
06C0
0900
0000
FEFC
3830
3830
7020
7020
7060
7040
E040
E040
E0C0
7180
3E00
ENDCHAR
STARTCHAR uhungarumlaut
ENCODING 369
SWIDTH 685 0
DWIDTH 11 0
BBX 10 12 0 0
BITMAP
06C0
0D80
1200
0000
79C0
39C0
3180
7380
6300
E700
EB40
7380
ENDCHAR
STARTCHAR Uogonek
ENCODING 370
SWIDTH 833 0
DWIDTH 14 0
BBX 14 15 1 -3
BITMAP
FEFC
3830
3830
7020
7020
7060
7040
E040
E040
E0C0
7180
3E00
0400
0800
0E00
ENDCHAR
STARTCHAR uogonek
ENCODING 371
SWIDTH 685 0
DWIDTH 11 0
BBX 10 11 0 -3
BITMAP
79C0
39C0
3180
7380
6300
E700
EB40
7380
0800
1000
1C00
ENDCHAR
STARTCHAR Wcircumflex
ENCODING 372
SWIDTH 944 0
DWIDTH 16 0
BBX 18 16 0 0
BITMAP
00C000
01E000
033000
000000
FDF7C0
38E300
38E200
38E600
39E400
39EC00
1A6800
1E7800
1C7000
1C7000
186000
186000
ENDCHAR
STARTCHAR wcircumflex
ENCODING 373
SWIDTH 833 0
DWIDTH 14 0
BBX 13 12 0 0
BITMAP
0300
0780
0CC0
0000
79D8
39D8
3188
7398
6710
E730
EB60
73C0
ENDCHAR
STARTCHAR Ycircumflex
ENCODING 374
SWIDTH 704 0
DWIDTH 12 0
BBX 13 16 0 0
BITMAP
0600
0F00
1980
0000
FEF8
3830
3860
1CC0
1D80
1F00
0E00
0E00
1C00
1C00
1C00
7F00
ENDCHAR
STARTCHAR ycircumflex
ENCODING 375
SWIDTH 519 0
DWIDTH 9 0
BBX 9 15 -1 -3
BITMAP
0C00
1E00
3300
0000
3180
7980
B880
1D80
1D00
0E00
0C00
0C00
C800
D000
6000
ENDCHAR
STARTCHAR Ydieresis
ENCODING 376
SWIDTH 704 0
DWIDTH 12 0
BBX 13 12 0 0
BITMAP
06C0
06C0
0000
FEF8
3860
3840
1C80
1D00
0E00
1C00
1C00
7F00
ENDCHAR
STARTCHAR Zacute
ENCODING 377
SWIDTH 704 0
DWIDTH 12 0
BBX 13 16 -1 0
BITMAP
00C0
0180
0200
0000
1FF8
1CF0
30E0
21C0
0380
0700
0F00
1E10
1C30
3860
71E0
FFE0
ENDCHAR
STARTCHAR zacute
ENCODING 378
SWIDTH 519 0
DWIDTH 9 0
BBX 8 12 0 0
BITMAP
06
0C
10
00
39
7F
46
0C
38
61
FE
9C
ENDCHAR
STARTCHAR Zdotaccent
ENCODING 379
SWIDTH 704 0
DWIDTH 12 0
BBX 13 15 -1 0
BITMAP
0300
0300
0000
1FF8
1CF0
30E0
21C0
0380
0700
0F00
1E10
1C30
3860
71E0
FFE0
ENDCHAR
STARTCHAR zdotaccent
ENCODING 380
SWIDTH 519 0
DWIDTH 9 0
BBX 8 11 0 0
BITMAP
18
18
00
39
7F
46
0C
38
61
FE
9C
ENDCHAR
STARTCHAR Zcaron
ENCODING 381
SWIDTH 704 0
DWIDTH 12 0
BBX 11 13 0 0
BITMAP
0CC0
0780
0300
0000
3FE0
31C0
6380
4700
0E20
1C60
38C0
71C0
FFC0
ENDCHAR
STARTCHAR zcaron
ENCODING 382
SWIDTH 519 0
DWIDTH 9 0
BBX 8 12 0 0
BITMAP
66
3C
18
00
39
7E
46
0C
30
61
FE
9C
ENDCHAR
STARTCHAR uni0186
ENCODING 390
SWIDTH 759 0
DWIDTH 13 0
BBX 12 12 1 0
BITMAP
0F80
10E0
2060
4070
0070
0070
0070
40E0
40E0
41C0
E380
BE00
ENDCHAR
STARTCHAR uni0189
ENCODING 393
SWIDTH 833 0
DWIDTH 14 0
BBX 14 12 -1 0
BITMAP
3FE0
0E38
0E18
0E1C
1C1C
7F1C
1C1C
1C38
3838
3870
38E0
FF80
ENDCHAR
STARTCHAR uni018E
ENCODING 398
SWIDTH 741 0
DWIDTH 12 0
BBX 13 12 -1 0
BITMAP
3FF8
30E0
20E0
60E0
49C0
0DC0
0FC0
19C0
5380
4380
C380
FFE0
ENDCHAR
STARTCHAR florin
ENCODING 402
SWIDTH 574 0
DWIDTH 10 0
BBX 12 15 -1 -3
BITMAP
00E0
0130
0370
0320
0300
1FC0
0600
0600
0600
0600
0C00
4C00
EC00
C800
7000
ENDCHAR
STARTCHAR uni0197
ENCODING 407
SWIDTH 444 0
DWIDTH 7 0
BBX 9 12 -1 0
BITMAP
3F80
0E00
0E00
0E00
1C00
FF80
FF80
1C00
3800
3800
3800
FE00
ENDCHAR
STARTCHAR uni019A
ENCODING 410
SWIDTH 389 0
DWIDTH 6 0
BBX 9 12 -1 0
BITMAP
1E00
0E00
0C00
1C00
1800
FF80
FF80
3800
3000
7000
7400
3800
ENDCHAR
STARTCHAR uni019D
ENCODING 413
SWIDTH 852 0
DWIDTH 14 0
BBX 18 15 -3 -3
BITMAP
0F87C0
03C100
03C100
02E300
06E200
047200
047600
043C00
0E3C00
0E1C00
0C1800
0C0800
CC0000
D80000
700000
ENDCHAR
STARTCHAR uni019F
ENCODING 415
SWIDTH 833 0
DWIDTH 14 0
BBX 13 12 1 0
BITMAP
07C0
1C70
3830
7038
7038
FFF8
FFF8
E070
E070
60E0
71C0
1F00
ENDCHAR
STARTCHAR Ohorn
ENCODING 416
SWIDTH 833 0
DWIDTH 14 0
BBX 16 12 1 0
BITMAP
07C6
1C7F
3837
703A
703C
E038
E038
E070
E070
60E0
71C0
1F00
ENDCHAR
STARTCHAR ohorn
ENCODING 417
SWIDTH 574 0
DWIDTH 10 0
BBX 12 8 0 0
BITMAP
1E60
73F0
63F0
E1A0
C3C0
E380
6700
3C00
ENDCHAR
STARTCHAR Uhorn
ENCODING 431
SWIDTH 833 0
DWIDTH 14 0
BBX 17 12 1 0
BITMAP
FEFF00
383780
383380
702100
702200
706400
704000
E04000
E04000
E0C000
718000
3E0000
ENDCHAR
STARTCHAR uhorn
ENCODING 432
SWIDTH 685 0
DWIDTH 11 0
BBX 13 8 0 0
BITMAP
79F0
39F8
31B8
7390
6320
E740
EB40
7380
ENDCHAR
STARTCHAR uni01B5
ENCODING 437
SWIDTH 704 0
DWIDTH 12 0
BBX 13 12 -1 0
BITMAP
1FF8
1CF0
30E0
21C0
0380
3FE0
3FE0
1E10
1C30
3860
71E0
FFE0
ENDCHAR
STARTCHAR uni01B6
ENCODING 438
SWIDTH 519 0
DWIDTH 9 0
BBX 9 8 0 0
BITMAP
3900
7F00
4600
FF80
FF80
6100
FE00
9C00
ENDCHAR
STARTCHAR uni01BB
ENCODING 443
SWIDTH 574 0
DWIDTH 9 0
BBX 10 12 -1 0
BITMAP
0F00
1180
21C0
38C0
39C0
FFC0
FFC0
0E00
1880
2100
7F00
FE00
ENDCHAR
STARTCHAR uni01BC
ENCODING 444
SWIDTH 574 0
DWIDTH 9 0
BBX 11 12 0 0
BITMAP
1FE0
1FC0
3000
3000
2000
3E00
0700
0380
6380
E300
C700
7C00
ENDCHAR
STARTCHAR uni01C0
ENCODING 448
SWIDTH 606 0
DWIDTH 10 0
BBX 1 12 5 0
BITMAP
80
80
80
80
80
80
80
80
80
80
80
80
ENDCHAR
STARTCHAR uni01C2
ENCODING 450
SWIDTH 606 0
DWIDTH 10 0
BBX 8 12 1 -1
BITMAP
08
08
08
08
FF
FF
08
FF
FF
08
08
08
ENDCHAR
STARTCHAR uni01C3
ENCODING 451
SWIDTH 333 0
DWIDTH 6 0
BBX 6 12 0 0
BITMAP
18
3C
38
38
30
30
20
20
00
60
F0
60
ENDCHAR
STARTCHAR uni01CD
ENCODING 461
SWIDTH 741 0
DWIDTH 12 0
BBX 13 16 -1 0
BITMAP
0CC0
0780
0300
0000
0180
0180
0380
0380
05C0
0DC0
09C0
1FC0
30E0
20E0
60E0
FBF8
ENDCHAR
STARTCHAR uni01CE
ENCODING 462
SWIDTH 667 0
DWIDTH 11 0
BBX 10 12 0 0
BITMAP
3300
1E00
0C00
0000
1DC0
7780
6380
E380
C300
C700
EF40
7B80
ENDCHAR
STARTCHAR uni01CF
ENCODING 463
SWIDTH 444 0
DWIDTH 7 0
BBX 9 16 -1 0
BITMAP
3300
1E00
0C00
0000
3F80
0E00
0E00
0E00
1C00
1C00
1C00
1C00
3800
3800
3800
FE00
ENDCHAR
STARTCHAR uni01D0
ENCODING 464
SWIDTH 389 0
DWIDTH 6 0
BBX 6 12 0 0
BITMAP
CC
78
30
00
F8
38
30
70
70
64
68
70
ENDCHAR
STARTCHAR uni01D1
ENCODING 465
SWIDTH 833 0
DWIDTH 14 0
BBX 13 16 1 0
BITMAP
0CC0
0780
0300
0000
07C0
1C70
3830
7038
7038
E038
E038
E070
E070
60E0
71C0
1F00
ENDCHAR
STARTCHAR uni01D2
ENCODING 466
SWIDTH 574 0
DWIDTH 10 0
BBX 9 12 0 0
BITMAP
3300
1E00
0C00
0000
1E00
7300
6380
E180
C380
E300
6700
3C00
ENDCHAR
STARTCHAR uni01D3
ENCODING 467
SWIDTH 833 0
DWIDTH 14 0
BBX 14 16 1 0
BITMAP
0CC0
0780
0300
0000
FEFC
3830
3830
7020
7020
7060
7040
E040
E040
E0C0
7180
3E00
ENDCHAR
STARTCHAR uni01D4
ENCODING 468
SWIDTH 685 0
DWIDTH 11 0
BBX 10 12 0 0
BITMAP
3300
1E00
0C00
0000
79C0
39C0
3180
7380
6300
E700
EB40
7380
ENDCHAR
STARTCHAR uni01D5
ENCODING 469
SWIDTH 833 0
DWIDTH 14 0
BBX 14 17 1 0
BITMAP
07C0
0000
0660
0660
0000
FEFC
3830
3830
7020
7020
7060
7040
E040
E040
E0C0
7180
3E00
ENDCHAR
STARTCHAR uni01D6
ENCODING 470
SWIDTH 685 0
DWIDTH 11 0
BBX 11 13 0 0
BITMAP
1F00
0000
1980
1980
0000
79C0
39C0
3180
7380
6300
E720
EB40
7380
ENDCHAR
STARTCHAR uni01D7
ENCODING 471
SWIDTH 833 0
DWIDTH 14 0
BBX 14 19 1 0
BITMAP
00C0
0180
0200
0000
0660
0660
0000
FEFC
3830
3830
7020
7020
7060
7040
E040
E040
E0C0
7180
3E00
ENDCHAR
STARTCHAR uni01D8
ENCODING 472
SWIDTH 685 0
DWIDTH 11 0
BBX 11 15 0 0
BITMAP
0180
0300
0400
0000
1980
1980
0000
79C0
39C0
3180
7380
6300
E720
EB40
7380
ENDCHAR
STARTCHAR uni01D9
ENCODING 473
SWIDTH 833 0
DWIDTH 14 0
BBX 14 19 1 0
BITMAP
0CC0
0780
0300
0000
0660
0660
0000
FEFC
3830
3830
7020
7020
7060
7040
E040
E040
E0C0
7180
3E00
ENDCHAR
STARTCHAR uni01DA
ENCODING 474
SWIDTH 685 0
DWIDTH 11 0
BBX 11 15 0 0
BITMAP
1980
0F00
0600
0000
1980
1980
0000
79C0
39C0
3180
7380
6300
E720
EB40
7380
ENDCHAR
STARTCHAR uni01DB
ENCODING 475
SWIDTH 833 0
DWIDTH 14 0
BBX 14 19 1 0
BITMAP
0C00
0600
0100
0000
0660
0660
0000
FEFC
3830
3830
7020
7020
7060
7040
E040
E040
E0C0
7180
3E00
ENDCHAR
STARTCHAR uni01DC
ENCODING 476
SWIDTH 685 0
DWIDTH 11 0
BBX 11 15 0 0
BITMAP
1800
0C00
0200
0000
1980
1980
0000
79C0
39C0
3180
7380
6300
E720
EB40
7380
ENDCHAR
STARTCHAR uni01DD
ENCODING 477
SWIDTH 519 0
DWIDTH 9 0
BBX 8 8 1 0
BITMAP
3E
47
03
3F
73
C6
EE
78
ENDCHAR
STARTCHAR uni01DE
ENCODING 478
SWIDTH 741 0
DWIDTH 12 0
BBX 13 17 -1 0
BITMAP
07C0
0000
0660
0660
0000
0180
0180
0380
0380
05C0
0DC0
09C0
1FC0
30E0
20E0
60E0
FBF8
ENDCHAR
STARTCHAR uni01DF
ENCODING 479
SWIDTH 667 0
DWIDTH 11 0
BBX 11 13 0 0
BITMAP
1F00
0000
1B00
1B00
0000
1DC0
7780
6380
E380
C300
C720
EF40
7B80
ENDCHAR
STARTCHAR uni01E0
ENCODING 480
SWIDTH 741 0
DWIDTH 12 0
BBX 13 17 -1 0
BITMAP
07C0
0000
0300
0300
0000
0180
0180
0380
0380
05C0
0DC0
09C0
1FC0
30E0
20E0
60E0
FBF8
ENDCHAR
STARTCHAR uni01E1
ENCODING 481
SWIDTH 667 0
DWIDTH 11 0
BBX 10 13 0 0
BITMAP
1F00
0000
0C00
0C00
0000
1DC0
7780
6380
E380
C300
C700
EF40
7B80
ENDCHAR
STARTCHAR uni01E2
ENCODING 482
SWIDTH 889 0
DWIDTH 15 0
BBX 16 14 -1 0
BITMAP
01F0
0000
07FF
03E3
02E2
06CA
0CD8
09F0
1190
3F92
6386
4384
C31C
EFFC
ENDCHAR
STARTCHAR uni01E3
ENCODING 483
SWIDTH 815 0
DWIDTH 14 0
BBX 14 10 0 0
BITMAP
07C0
0000
3C78
77DC
338C
0738
7FE0
E700
E798
7DF0
ENDCHAR
STARTCHAR uni01E4
ENCODING 484
SWIDTH 815 0
DWIDTH 14 0
BBX 16 12 1 0
BITMAP
07D0
1C70
3820
7020
7000
E000
E3F8
E0E0
E0E0
61FF
71FF
1E40
ENDCHAR
STARTCHAR uni01E5
ENCODING 485
SWIDTH 611 0
DWIDTH 10 0
BBX 11 12 -1 -3
BITMAP
0060
07A0
1CC0
38E0
38E0
19C0
3F00
6000
FFE0
FFE0
C180
7F00
ENDCHAR
STARTCHAR Gcaron
ENCODING 486
SWIDTH 815 0
DWIDTH 14 0
BBX 13 16 1 0
BITMAP
0CC0
0780
0300
0000
07D0
1C70
3820
7020
7000
E000
E3F8
E0E0
E0E0
61C0
71C0
1E40
ENDCHAR
STARTCHAR gcaron
ENCODING 487
SWIDTH 611 0
DWIDTH 10 0
BBX 11 16 -1 -3
BITMAP
0CC0
0780
0300
0000
0060
07A0
1CC0
38E0
38E0
19C0
3F00
6000
3F00
7F80
C180
7F00
ENDCHAR
STARTCHAR uni01E8
ENCODING 488
SWIDTH 778 0
DWIDTH 13 0
BBX 15 16 -1 0
BITMAP
0660
03C0
0180
0000
3FBE
0E18
0E30
0E60
1CC0
1FC0
1FC0
1CE0
38E0
3870
3870
FDFC
ENDCHAR
STARTCHAR uni01E9
ENCODING 489
SWIDTH 648 0
DWIDTH 11 0
BBX 10 16 0 0
BITMAP
3300
1E00
0C00
0000
1E00
0E00
0C00
1C00
1B80
1CC0
39C0
3180
7E00
7700
6340
E380
ENDCHAR
STARTCHAR uni01EA
ENCODING 490
SWIDTH 833 0
DWIDTH 14 0
BBX 13 15 1 -3
BITMAP
07C0
1C70
3830
7038
7038
E038
E038
E070
E070
60E0
71C0
1F00
0200
0400
0700
ENDCHAR
STARTCHAR uni01EB
ENCODING 491
SWIDTH 574 0
DWIDTH 10 0
BBX 9 11 0 -3
BITMAP
1E00
7300
6380
E180
C380
E300
6700
3C00
0800
1000
1C00
ENDCHAR
STARTCHAR uni01EC
ENCODING 492
SWIDTH 833 0
DWIDTH 14 0
BBX 13 17 1 -3
BITMAP
0F80
0000
07C0
1C70
3830
7038
7038
E038
E038
E070
E070
60E0
71C0
1F00
0200
0400
0700
ENDCHAR
STARTCHAR uni01ED
ENCODING 493
SWIDTH 574 0
DWIDTH 10 0
BBX 9 13 0 -3
BITMAP
3E00
0000
1E00
7300
6380
E180
C380
E300
6700
3C00
0800
1000
1C00
ENDCHAR
STARTCHAR uni01F0
ENCODING 496
SWIDTH 370 0
DWIDTH 6 0
BBX 9 15 -3 -3
BITMAP
1980
0F00
0600
0000
0F00
0700
0600
0600
0E00
0E00
0C00
0C00
CC00
D800
7000
ENDCHAR
STARTCHAR uni01F4
ENCODING 500
SWIDTH 815 0
DWIDTH 14 0
BBX 13 16 1 0
BITMAP
00C0
0180
0200
0000
07D0
1C70
3820
7020
7000
E000
E3F8
E0E0
E0E0
61C0
71C0
1E40
ENDCHAR
STARTCHAR uni01F5
ENCODING 501
SWIDTH 611 0
DWIDTH 10 0
BBX 11 16 -1 -3
BITMAP
00C0
0180
0200
0000
0060
07A0
1CC0
38E0
38E0
19C0
3F00
6000
3F00
7F80
C180
7F00
ENDCHAR
STARTCHAR uni01F8
ENCODING 504
SWIDTH 852 0
DWIDTH 14 0
BBX 16 16 -1 0
BITMAP
0600
0300
0080
0000
3E1F
0F04
0F04
0B8C
1B88
11C8
11D8
10F0
30F0
2070
2060
F820
ENDCHAR
STARTCHAR uni01F9
ENCODING 505
SWIDTH 685 0
DWIDTH 11 0
BBX 10 12 0 0
BITMAP
3000
1800
0400
0000
7380
35C0
39C0
7180
7380
6300
E740
E380
ENDCHAR
STARTCHAR Aringacute
ENCODING 506
SWIDTH 741 0
DWIDTH 12 0
BBX 13 20 -1 0
BITMAP
0060
00C0
0100
0000
0180
0240
0240
0180
0180
0180
0380
0380
05C0
0DC0
09C0
1FC0
30E0
20E0
60E0
FBF8
ENDCHAR
STARTCHAR aringacute
ENCODING 507
SWIDTH 667 0
DWIDTH 11 0
BBX 11 17 0 0
BITMAP
0180
0300
0400
0000
0600
0B00
0B00
0600
0000
1DC0
7780
6380
E380
C300
C720
EF40
7B80
ENDCHAR
STARTCHAR AEacute
ENCODING 508
SWIDTH 889 0
DWIDTH 15 0
BBX 16 16 -1 0
BITMAP
0030
0060
0080
0000
07FF
03E3
02E2
06CA
0CD8
09F0
1190
3F92
6386
4384
C31C
EFFC
ENDCHAR
STARTCHAR aeacute
ENCODING 509
SWIDTH 815 0
DWIDTH 14 0
BBX 14 12 0 0
BITMAP
00C0
0180
0200
0000
3C78
77DC
338C
0738
7FE0
E700
E798
7DF0
ENDCHAR
STARTCHAR Oslashacute
ENCODING 510
SWIDTH 833 0
DWIDTH 14 0
BBX 13 18 1 -1
BITMAP
00C0
0180
0200
0000
0008
07F0
1C70
38B0
70B8
7138
E238
E238
E470
E870
68E0
71C0
3F00
4000
ENDCHAR
STARTCHAR oslashacute
ENCODING 511
SWIDTH 574 0
DWIDTH 10 0
BBX 9 16 0 -2
BITMAP
0300
0600
0800
0000
0100
0100
1E00
7300
6780
E980
CB80
F300
6700
3C00
4000
4000
ENDCHAR
STARTCHAR Scommaaccent
ENCODING 536
SWIDTH 685 0
DWIDTH 11 0
BBX 11 19 0 -7
BITMAP
0FA0
18C0
30C0
3040
3C00
3F80
1FC0
43C0
40C0
60C0
F180
9F00
0000
0C00
1E00
0E00
0400
0800
1000
ENDCHAR
STARTCHAR scommaaccent
ENCODING 537
SWIDTH 481 0
DWIDTH 8 0
BBX 8 15 0 -7
BITMAP
1E
73
63
7C
3E
C6
CE
78
00
18
3C
1C
08
10
20
ENDCHAR
STARTCHAR Tcommaaccent
ENCODING 538
SWIDTH 722 0
DWIDTH 12 0
BBX 13 19 0 -7
BITMAP
7FF8
6738
C710
8710
8E10
0E00
0E00
0E00
1C00
1C00
1C00
7F00
0000
0C00
1E00
0E00
0400
0800
1000
ENDCHAR
STARTCHAR tcommaaccent
ENCODING 539
SWIDTH 407 0
DWIDTH 7 0
BBX 6 18 1 -7
BITMAP
18
18
30
FC
70
60
60
E0
C8
D0
E0
00
60
F0
70
20
40
80
ENDCHAR
STARTCHAR uni021E
ENCODING 542
SWIDTH 870 0
DWIDTH 14 0
BBX 16 16 -1 0
BITMAP
0330
01E0
00C0
0000
3FBF
0E1C
0E1C
0E1C
1C38
1FF8
1C38
1C38
3870
3870
3870
FDFC
ENDCHAR
STARTCHAR uni021F
ENCODING 543
SWIDTH 685 0
DWIDTH 11 0
BBX 10 16 0 0
BITMAP
6600
3C00
1800
0000
3C00
1C00
1800
3800
3380
35C0
39C0
7980
7380
6300
E740
E380
ENDCHAR
STARTCHAR uni0226
ENCODING 550
SWIDTH 741 0
DWIDTH 12 0
BBX 13 15 -1 0
BITMAP
0300
0300
0000
0180
0180
0380
0380
05C0
0DC0
09C0
1FC0
30E0
20E0
60E0
FBF8
ENDCHAR
STARTCHAR uni0227
ENCODING 551
SWIDTH 667 0
DWIDTH 11 0
BBX 10 11 0 0
BITMAP
0C00
0C00
0000
1DC0
7780
6380
E380
C300
C700
EF40
7B80
ENDCHAR
STARTCHAR uni0228
ENCODING 552
SWIDTH 741 0
DWIDTH 12 0
BBX 13 15 -1 -3
BITMAP
3FF8
0E18
0E10
0E50
1CC0
1F80
1D80
1C90
3830
3820
3860
FFE0
0600
0300
0E00
ENDCHAR
STARTCHAR uni0229
ENCODING 553
SWIDTH 519 0
DWIDTH 9 0
BBX 8 11 1 -3
BITMAP
1E
77
63
CE
FC
C0
E2
7C
30
18
70
ENDCHAR
STARTCHAR uni022A
ENCODING 554
SWIDTH 833 0
DWIDTH 14 0
BBX 13 17 1 0
BITMAP
07C0
0000
0660
0660
0000
07C0
1C70
3830
7038
7038
E038
E038
E070
E070
60E0
71C0
1F00
ENDCHAR
STARTCHAR uni022B
ENCODING 555
SWIDTH 574 0
DWIDTH 10 0
BBX 9 13 0 0
BITMAP
3E00
0000
3300
3300
0000
1E00
7300
6380
E180
C380
E300
6700
3C00
ENDCHAR
STARTCHAR uni022C
ENCODING 556
SWIDTH 833 0
DWIDTH 14 0
BBX 13 17 1 0
BITMAP
07C0
0000
03A0
05C0
0000
07C0
1C70
3830
7038
7038
E038
E038
E070
E070
60E0
71C0
1F00
ENDCHAR
STARTCHAR uni022D
ENCODING 557
SWIDTH 574 0
DWIDTH 10 0
BBX 9 13 0 0
BITMAP
3E00
0000
1D00
2E00
0000
1E00
7300
6380
E180
C380
E300
6700
3C00
ENDCHAR
STARTCHAR uni022E
ENCODING 558
SWIDTH 833 0
DWIDTH 14 0
BBX 13 15 1 0
BITMAP
0300
0300
0000
07C0
1C70
3830
7038
7038
E038
E038
E070
E070
60E0
71C0
1F00
ENDCHAR
STARTCHAR uni022F
ENCODING 559
SWIDTH 574 0
DWIDTH 10 0
BBX 9 11 0 0
BITMAP
0C00
0C00
0000
1E00
7300
6380
E180
C380
E300
6700
3C00
ENDCHAR
STARTCHAR uni0230
ENCODING 560
SWIDTH 833 0
DWIDTH 14 0
BBX 13 17 1 0
BITMAP
07C0
0000
0300
0300
0000
07C0
1C70
3830
7038
7038
E038
E038
E070
E070
60E0
71C0
1F00
ENDCHAR
STARTCHAR uni0231
ENCODING 561
SWIDTH 574 0
DWIDTH 10 0
BBX 9 13 0 0
BITMAP
3E00
0000
0C00
0C00
0000
1E00
7300
6380
E180
C380
E300
6700
3C00
ENDCHAR
STARTCHAR uni0232
ENCODING 562
SWIDTH 704 0
DWIDTH 12 0
BBX 13 14 0 0
BITMAP
0F80
0000
FEF8
3830
3860
1CC0
1D80
1F00
0E00
0E00
1C00
1C00
1C00
7F00
ENDCHAR
STARTCHAR uni0233
ENCODING 563
SWIDTH 519 0
DWIDTH 9 0
BBX 9 13 -1 -3
BITMAP
3E00
0000
3180
7980
B880
1D80
1D00
0E00
0C00
0C00
C800
D000
6000
ENDCHAR
STARTCHAR uni0250
ENCODING 592
SWIDTH 667 0
DWIDTH 11 0
BBX 10 8 0 0
BITMAP
7780
BDC0
38C0
30C0
71C0
7180
7B80
EE00
ENDCHAR
STARTCHAR uni0259
ENCODING 601
SWIDTH 519 0
DWIDTH 9 0
BBX 8 8 1 0
BITMAP
3E
47
03
3F
73
C6
EE
78
ENDCHAR
STARTCHAR uni025F
ENCODING 607
SWIDTH 389 0
DWIDTH 6 0
BBX 10 15 -1 -7
BITMAP
01C0
0180
0180
0380
0300
0300
0700
0600
0600
0E00
3F00
0C00
CC00
D800
7000
ENDCHAR
STARTCHAR uni0265
ENCODING 613
SWIDTH 685 0
DWIDTH 11 0
BBX 10 12 0 -4
BITMAP
71C0
B9C0
3180
7380
6780
E700
EB00
7300
0700
0600
0E00
0F00
ENDCHAR
STARTCHAR uni0275
ENCODING 629
SWIDTH 574 0
DWIDTH 10 0
BBX 9 8 0 0
BITMAP
1E00
7300
6380
FF80
FF80
E300
6700
3C00
ENDCHAR
STARTCHAR uni0279
ENCODING 633
SWIDTH 519 0
DWIDTH 9 0
BBX 9 8 0 0
BITMAP
0380
0300
0700
0600
0E00
CE00
DC00
EE00
ENDCHAR
STARTCHAR uni0287
ENCODING 647
SWIDTH 407 0
DWIDTH 7 0
BBX 6 11 1 0
BITMAP
1C
2C
4C
1C
18
18
38
FC
30
60
60
ENDCHAR
STARTCHAR uni0289
ENCODING 649
SWIDTH 685 0
DWIDTH 11 0
BBX 10 8 0 0
BITMAP
79C0
39C0
3180
FFC0
FFC0
E700
EB40
7380
ENDCHAR
STARTCHAR uni028C
ENCODING 652
SWIDTH 556 0
DWIDTH 9 0
BBX 7 8 1 0
BITMAP
3C
66
46
C6
CE
8C
CC
DE
ENDCHAR
STARTCHAR uni028D
ENCODING 653
SWIDTH 833 0
DWIDTH 14 0
BBX 13 8 0 0
BITMAP
1E70
36B8
6738
4730
CE70
8C60
DCE0
DCF0
ENDCHAR
STARTCHAR uni028E
ENCODING 654
SWIDTH 519 0
DWIDTH 9 0
BBX 9 11 -1 0
BITMAP
0300
0580
0980
1800
1800
3800
5C00
DC00
8E80
CF00
C600
ENDCHAR
STARTCHAR uni029E
ENCODING 670
SWIDTH 648 0
DWIDTH 11 0
BBX 10 12 0 -4
BITMAP
71C0
B180
3B80
1F80
6300
E700
CE00
7600
0E00
0C00
1C00
1E00
ENDCHAR
STARTCHAR uni02BB
ENCODING 699
SWIDTH 259 0
DWIDTH 4 0
BBX 4 6 0 6
BITMAP
10
20
40
E0
F0
60
ENDCHAR
STARTCHAR afii57929
ENCODING 700
SWIDTH 259 0
DWIDTH 4 0
BBX 4 6 1 6
BITMAP
60
F0
70
20
40
80
ENDCHAR
STARTCHAR afii64937
ENCODING 701
SWIDTH 259 0
DWIDTH 4 0
BBX 4 6 1 6
BITMAP
60
F0
E0
40
20
10
ENDCHAR
STARTCHAR circumflex
ENCODING 710
SWIDTH 333 0
DWIDTH 6 0
BBX 6 3 0 9
BITMAP
30
78
CC
ENDCHAR
STARTCHAR caron
ENCODING 711
SWIDTH 333 0
DWIDTH 6 0
BBX 6 3 0 9
BITMAP
CC
78
30
ENDCHAR
STARTCHAR uni02C8
ENCODING 712
SWIDTH 287 0
DWIDTH 5 0
BBX 3 5 2 7
BITMAP
C0
E0
C0
80
80
ENDCHAR
STARTCHAR macron
ENCODING 713
SWIDTH 333 0
DWIDTH 6 0
BBX 5 1 1 10
BITMAP
F8
ENDCHAR
STARTCHAR uni02CA
ENCODING 714
SWIDTH 333 0
DWIDTH 6 0
BBX 4 3 2 9
BITMAP
30
60
80
ENDCHAR
STARTCHAR uni02CB
ENCODING 715
SWIDTH 333 0
DWIDTH 6 0
BBX 4 3 1 9
BITMAP
C0
60
10
ENDCHAR
STARTCHAR uni02CD
ENCODING 717
SWIDTH 333 0
DWIDTH 6 0
BBX 5 1 1 -2
BITMAP
F8
ENDCHAR
STARTCHAR uni02CE
ENCODING 718
SWIDTH 333 0
DWIDTH 6 0
BBX 4 3 1 -4
BITMAP
C0
60
10
ENDCHAR
STARTCHAR uni02CF
ENCODING 719
SWIDTH 333 0
DWIDTH 6 0
BBX 4 3 2 -4
BITMAP
30
60
80
ENDCHAR
STARTCHAR breve
ENCODING 728
SWIDTH 333 0
DWIDTH 5 0
BBX 5 3 0 9
BITMAP
88
88
70
ENDCHAR
STARTCHAR dotaccent
ENCODING 729
SWIDTH 333 0
DWIDTH 5 0
BBX 2 2 2 9
BITMAP
C0
C0
ENDCHAR
STARTCHAR ring
ENCODING 730
SWIDTH 333 0
DWIDTH 5 0
BBX 4 4 2 8
BITMAP
60
90
90
60
ENDCHAR
STARTCHAR ogonek
ENCODING 731
SWIDTH 333 0
DWIDTH 6 0
BBX 3 3 1 -3
BITMAP
40
80
E0
ENDCHAR
STARTCHAR tilde
ENCODING 732
SWIDTH 333 0
DWIDTH 6 0
BBX 6 2 0 9
BITMAP
74
B8
ENDCHAR
STARTCHAR hungarumlaut
ENCODING 733
SWIDTH 333 0
DWIDTH 6 0
BBX 7 3 1 9
BITMAP
36
6C
90
ENDCHAR
STARTCHAR uni02EE
ENCODING 750
SWIDTH 481 0
DWIDTH 8 0
BBX 8 6 1 6
BITMAP
66
FF
77
22
44
88
ENDCHAR
STARTCHAR uni037E
ENCODING 894
SWIDTH 287 0
DWIDTH 5 0
BBX 5 11 0 -3
BITMAP
30
78
30
00
00
60
F0
70
20
40
80
ENDCHAR
STARTCHAR tonos
ENCODING 900
SWIDTH 333 0
DWIDTH 6 0
BBX 4 3 2 9
BITMAP
30
60
80
ENDCHAR
STARTCHAR dieresistonos
ENCODING 901
SWIDTH 333 0
DWIDTH 6 0
BBX 6 6 1 9
BITMAP
0C
18
20
00
D8
D8
ENDCHAR
STARTCHAR anoteleia
ENCODING 903
SWIDTH 287 0
DWIDTH 5 0
BBX 4 3 0 3
BITMAP
60
F0
60
ENDCHAR
STARTCHAR mu
ENCODING 956
SWIDTH 576 0
DWIDTH 11 0
BBX 13 11 -2 -3
BITMAP
3E30
0E70
0C60
1CE0
18C0
39C8
3AD0
7CE0
4000
4000
C000
ENDCHAR
STARTCHAR uni1E00
ENCODING 7680
SWIDTH 741 0
DWIDTH 12 0
BBX 13 17 -1 -5
BITMAP
0180
0180
0380
0380
05C0
0DC0
09C0
1FC0
30E0
20E0
60E0
FBF8
0000
0300
0480
0480
0300
ENDCHAR
STARTCHAR uni1E01
ENCODING 7681
SWIDTH 667 0
DWIDTH 11 0
BBX 10 13 0 -5
BITMAP
1DC0
7780
6380
E380
C300
C700
EF40
7B80
0000
0C00
1200
1200
0C00
ENDCHAR
STARTCHAR uni1E02
ENCODING 7682
SWIDTH 759 0
DWIDTH 13 0
BBX 13 15 -1 0
BITMAP
0300
0300
0000
3FF0
0E38
0E38
0E38
1C70
1FC0
1CE0
1C70
3870
3870
38E0
FFC0
ENDCHAR
STARTCHAR uni1E03
ENCODING 7683
SWIDTH 611 0
DWIDTH 10 0
BBX 9 15 0 0
BITMAP
1800
1800
0000
7800
3800
3000
3000
7700
7B80
7180
E180
E380
C300
CE00
7800
ENDCHAR
STARTCHAR uni1E04
ENCODING 7684
SWIDTH 759 0
DWIDTH 13 0
BBX 13 15 -1 -3
BITMAP
3FF0
0E38
0E38
0E38
1C70
1FC0
1CE0
1C70
3870
3870
38E0
FFC0
0000
0600
0600
ENDCHAR
STARTCHAR uni1E05
ENCODING 7685
SWIDTH 611 0
DWIDTH 10 0
BBX 9 15 0 -3
BITMAP
7800
3800
3000
3000
7700
7B80
7180
E180
E380
C300
CE00
7800
0000
1800
1800
ENDCHAR
STARTCHAR uni1E06
ENCODING 7686
SWIDTH 759 0
DWIDTH 13 0
BBX 13 14 -1 -2
BITMAP
3FF0
0E38
0E38
0E38
1C70
1FC0
1CE0
1C70
3870
3870
38E0
FFC0
0000
0F80
ENDCHAR
STARTCHAR uni1E07
ENCODING 7687
SWIDTH 611 0
DWIDTH 10 0
BBX 9 14 0 -2
BITMAP
7800
3800
3000
3000
7700
7B80
7180
E180
E380
C300
CE00
7800
0000
3E00
ENDCHAR
STARTCHAR uni1E08
ENCODING 7688
SWIDTH 759 0
DWIDTH 13 0
BBX 12 19 1 -3
BITMAP
0180
0300
0400
0000
07D0
1C70
3820
7020
7020
E000
E000
E000
E020
6040
7080
1F00
0C00
0600
1C00
ENDCHAR
STARTCHAR uni1E09
ENCODING 7689
SWIDTH 537 0
DWIDTH 9 0
BBX 8 15 0 -3
BITMAP
06
0C
10
00
1E
73
67
E2
C0
C2
E4
78
30
18
70
ENDCHAR
STARTCHAR uni1E0A
ENCODING 7690
SWIDTH 833 0
DWIDTH 14 0
BBX 14 15 -1 0
BITMAP
0180
0180
0000
3FE0
0E38
0E18
0E1C
1C1C
1C1C
1C1C
1C38
3838
3870
38E0
FF80
ENDCHAR
STARTCHAR uni1E0B
ENCODING 7691
SWIDTH 667 0
DWIDTH 11 0
BBX 11 15 0 0
BITMAP
0180
0180
0000
01E0
00E0
00C0
01C0
1D80
7780
6380
E380
C300
C700
E740
7B80
ENDCHAR
STARTCHAR uni1E0C
ENCODING 7692
SWIDTH 833 0
DWIDTH 14 0
BBX 14 15 -1 -3
BITMAP
3FE0
0E38
0E18
0E1C
1C1C
1C1C
1C1C
1C38
3838
3870
38E0
FF80
0000
0600
0600
ENDCHAR
STARTCHAR uni1E0D
ENCODING 7693
SWIDTH 667 0
DWIDTH 11 0
BBX 11 15 0 -3
BITMAP
01E0
00E0
00C0
01C0
1D80
7780
6380
E380
C300
C700
E740
7B80
0000
0C00
0C00
ENDCHAR
STARTCHAR uni1E0E
ENCODING 7694
SWIDTH 833 0
DWIDTH 14 0
BBX 14 14 -1 -2
BITMAP
3FE0
0E38
0E18
0E1C
1C1C
1C1C
1C1C
1C38
3838
3870
38E0
FF80
0000
0F80
ENDCHAR
STARTCHAR uni1E0F
ENCODING 7695
SWIDTH 667 0
DWIDTH 11 0
BBX 11 14 0 -2
BITMAP
01E0
00E0
00C0
01C0
1D80
7780
6380
E380
C300
C700
E740
7B80
0000
3E00
ENDCHAR
STARTCHAR uni1E10
ENCODING 7696
SWIDTH 833 0
DWIDTH 14 0
BBX 14 15 -1 -3
BITMAP
3FE0
0E38
0E18
0E1C
1C1C
1C1C
1C1C
1C38
3838
3870
38E0
FF80
0600
0300
0E00
ENDCHAR
STARTCHAR uni1E11
ENCODING 7697
SWIDTH 667 0
DWIDTH 11 0
BBX 11 15 0 -3
BITMAP
01E0
00E0
00C0
01C0
1D80
7780
6380
E380
C300
C700
E740
7F80
0C00
0600
1C00
ENDCHAR
STARTCHAR uni1E12
ENCODING 7698
SWIDTH 833 0
DWIDTH 14 0
BBX 14 16 -1 -4
BITMAP
3FE0
0E38
0E18
0E1C
1C1C
1C1C
1C1C
1C38
3838
3870
38E0
FF80
0000
0600
0F00
1980
ENDCHAR
STARTCHAR uni1E13
ENCODING 7699
SWIDTH 667 0
DWIDTH 11 0
BBX 11 16 0 -4
BITMAP
01E0
00E0
00C0
01C0
1D80
7780
6380
E380
C300
C700
E740
7B80
0000
0C00
1E00
3300
ENDCHAR
STARTCHAR uni1E14
ENCODING 7700
SWIDTH 741 0
DWIDTH 12 0
BBX 13 18 -1 0
BITMAP
0C00
0600
0100
0000
07C0
0000
3FF8
0E18
0E10
0E50
1CC0
1F80
1D80
1C90
3830
3820
3860
FFE0
ENDCHAR
STARTCHAR uni1E15
ENCODING 7701
SWIDTH 519 0
DWIDTH 9 0
BBX 8 14 1 0
BITMAP
60
30
08
00
3E
00
1E
77
63
CE
FC
C0
E2
7C
ENDCHAR
STARTCHAR uni1E16
ENCODING 7702
SWIDTH 741 0
DWIDTH 12 0
BBX 13 18 -1 0
BITMAP
00C0
0180
0200
0000
07C0
0000
3FF8
0E18
0E10
0E50
1CC0
1F80
1D80
1C90
3830
3820
3860
FFE0
ENDCHAR
STARTCHAR uni1E17
ENCODING 7703
SWIDTH 519 0
DWIDTH 9 0
BBX 8 14 1 0
BITMAP
06
0C
10
00
3E
00
1E
77
63
CE
FC
C0
E2
7C
ENDCHAR
STARTCHAR uni1E18
ENCODING 7704
SWIDTH 741 0
DWIDTH 12 0
BBX 13 16 -1 -4
BITMAP
3FF8
0E18
0E10
0E50
1CC0
1F80
1D80
1C90
3830
3820
3860
FFE0
0000
0600
0F00
1980
ENDCHAR
STARTCHAR uni1E19
ENCODING 7705
SWIDTH 519 0
DWIDTH 9 0
BBX 8 12 1 -4
BITMAP
1E
77
63
CE
FC
C0
E2
7C
00
30
78
CC
ENDCHAR
STARTCHAR uni1E1A
ENCODING 7706
SWIDTH 741 0
DWIDTH 12 0
BBX 13 15 -1 -3
BITMAP
3FF8
0E18
0E10
0E50
1CC0
1F80
1D80
1C90
3830
3820
3860
FFE0
0000
0E80
1700
ENDCHAR
STARTCHAR uni1E1B
ENCODING 7707
SWIDTH 519 0
DWIDTH 9 0
BBX 8 11 1 -3
BITMAP
1E
77
63
CE
FC
C0
E2
7C
00
74
B8
ENDCHAR
STARTCHAR uni1E1C
ENCODING 7708
SWIDTH 741 0
DWIDTH 12 0
BBX 13 19 -1 -3
BITMAP
0440
0440
0380
0000
3FF8
0E18
0E10
0E50
1CC0
1F80
1D80
1C90
3830
3820
3860
FFE0
0600
0300
0E00
ENDCHAR
STARTCHAR uni1E1D
ENCODING 7709
SWIDTH 519 0
DWIDTH 9 0
BBX 8 15 1 -3
BITMAP
22
22
1C
00
1E
77
63
CE
FC
C0
E2
7C
30
18
70
ENDCHAR
STARTCHAR uni1E1E
ENCODING 7710
SWIDTH 704 0
DWIDTH 12 0
BBX 13 15 -1 0
BITMAP
0300
0300
0000
3FF8
0E18
0E10
0E50
1CC0
1F80
1D80
1C80
3800
3800
3800
FE00
ENDCHAR
STARTCHAR uni1E1F
ENCODING 7711
SWIDTH 389 0
DWIDTH 6 0
BBX 10 18 -1 -3
BITMAP
0600
0600
0000
0380
06C0
0CC0
0C00
3F00
1C00
1800
1800
3800
3000
3000
7000
6000
6000
E000
ENDCHAR
STARTCHAR uni1E20
ENCODING 7712
SWIDTH 815 0
DWIDTH 14 0
BBX 13 14 1 0
BITMAP
0F80
0000
07D0
1C70
3820
7020
7000
E000
E3F8
E0E0
E0E0
61C0
71C0
1E40
ENDCHAR
STARTCHAR uni1E21
ENCODING 7713
SWIDTH 611 0
DWIDTH 10 0
BBX 11 14 -1 -3
BITMAP
0F80
0000
0060
07A0
1CC0
38E0
38E0
19C0
3F00
6000
3F00
7F80
C180
7F00
ENDCHAR
STARTCHAR uni1E22
ENCODING 7714
SWIDTH 870 0
DWIDTH 14 0
BBX 16 15 -1 0
BITMAP
00C0
00C0
0000
3FBF
0E1C
0E1C
0E1C
1C38
1FF8
1C38
1C38
3870
3870
3870
FDFC
ENDCHAR
STARTCHAR uni1E23
ENCODING 7715
SWIDTH 685 0
DWIDTH 11 0
BBX 10 15 0 0
BITMAP
1800
1800
0000
3C00
1C00
1800
3800
3380
35C0
39C0
7980
7380
6300
E740
E380
ENDCHAR
STARTCHAR uni1E24
ENCODING 7716
SWIDTH 870 0
DWIDTH 14 0
BBX 16 15 -1 -3
BITMAP
3FBF
0E1C
0E1C
0E1C
1C38
1FF8
1C38
1C38
3870
3870
3870
FDFC
0000
0300
0300
ENDCHAR
STARTCHAR uni1E25
ENCODING 7717
SWIDTH 685 0
DWIDTH 11 0
BBX 10 15 0 -3
BITMAP
3C00
1C00
1800
3800
3380
35C0
39C0
7980
7380
6300
E740
E380
0000
0C00
0C00
ENDCHAR
STARTCHAR uni1E26
ENCODING 7718
SWIDTH 870 0
DWIDTH 14 0
BBX 16 15 -1 0
BITMAP
0360
0360
0000
3FBF
0E1C
0E1C
0E1C
1C38
1FF8
1C38
1C38
3870
3870
3870
FDFC
ENDCHAR
STARTCHAR uni1E27
ENCODING 7719
SWIDTH 685 0
DWIDTH 11 0
BBX 10 15 0 0
BITMAP
3600
3600
0000
3C00
1C00
1800
3800
3380
35C0
39C0
7980
7380
6300
E740
E380
ENDCHAR
STARTCHAR uni1E28
ENCODING 7720
SWIDTH 870 0
DWIDTH 14 0
BBX 16 15 -1 -3
BITMAP
3FBF
0E1C
0E1C
0E1C
1C38
1FF8
1C38
1C38
3870
3870
3870
FFFC
0300
0180
0700
ENDCHAR
STARTCHAR uni1E29
ENCODING 7721
SWIDTH 685 0
DWIDTH 11 0
BBX 10 15 0 -3
BITMAP
3C00
1C00
1800
3800
3380
35C0
39C0
7980
7380
6300
E740
EF80
0C00
0600
1C00
ENDCHAR
STARTCHAR uni1E2A
ENCODING 7722
SWIDTH 870 0
DWIDTH 14 0
BBX 16 16 -1 -4
BITMAP
3FBF
0E1C
0E1C
0E1C
1C38
1FF8
1C38
1C38
3870
3870
3870
FDFC
0000
0440
0440
0380
ENDCHAR
STARTCHAR uni1E2B
ENCODING 7723
SWIDTH 685 0
DWIDTH 11 0
BBX 10 16 0 -4
BITMAP
3C00
1C00
1800
3800
3380
35C0
39C0
7980
7380
6300
E740
E380
0000
2200
2200
1C00
ENDCHAR
STARTCHAR uni1E2C
ENCODING 7724
SWIDTH 444 0
DWIDTH 7 0
BBX 9 15 -1 -3
BITMAP
3F80
0E00
0E00
0E00
1C00
1C00
1C00
1C00
3800
3800
3800
FE00
0000
3A00
5C00
ENDCHAR
STARTCHAR uni1E2D
ENCODING 7725
SWIDTH 389 0
DWIDTH 6 0
BBX 7 15 -1 -3
BITMAP
0C
1E
0C
00
3C
1C
18
38
38
70
74
38
00
74
B8
ENDCHAR
STARTCHAR uni1E2E
ENCODING 7726
SWIDTH 444 0
DWIDTH 7 0
BBX 9 19 -1 0
BITMAP
0300
0600
0800
0000
1980
1980
0000
3F80
0E00
0E00
0E00
1C00
1C00
1C00
1C00
3800
3800
3800
FE00
ENDCHAR
STARTCHAR uni1E2F
ENCODING 7727
SWIDTH 389 0
DWIDTH 6 0
BBX 6 15 0 0
BITMAP
0C
18
20
00
6C
6C
00
78
38
30
70
60
EC
E8
70
ENDCHAR
STARTCHAR uni1E30
ENCODING 7728
SWIDTH 778 0
DWIDTH 13 0
BBX 15 16 -1 0
BITMAP
0060
00C0
0100
0000
3FBE
0E18
0E30
0E60
1CC0
1FC0
1FC0
1CE0
38E0
3870
3870
FDFC
ENDCHAR
STARTCHAR uni1E31
ENCODING 7729
SWIDTH 648 0
DWIDTH 11 0
BBX 10 16 0 0
BITMAP
0300
0600
0800
0000
1E00
0E00
0C00
1C00
1B80
1CC0
39C0
3180
7E00
7700
6340
E380
ENDCHAR
STARTCHAR uni1E32
ENCODING 7730
SWIDTH 778 0
DWIDTH 13 0
BBX 15 15 -1 -3
BITMAP
3FBE
0E18
0E30
0E60
1CC0
1FC0
1FC0
1CE0
38E0
3870
3870
FDFC
0000
0300
0300
ENDCHAR
STARTCHAR uni1E33
ENCODING 7731
SWIDTH 648 0
DWIDTH 11 0
BBX 10 15 0 -3
BITMAP
1E00
0E00
0C00
1C00
1B80
1CC0
39C0
3180
7E00
7700
6340
E380
0000
0C00
0C00
ENDCHAR
STARTCHAR uni1E34
ENCODING 7732
SWIDTH 778 0
DWIDTH 13 0
BBX 15 14 -1 -2
BITMAP
3FBE
0E18
0E30
0E60
1CC0
1FC0
1FC0
1CE0
38E0
3870
3870
FDFC
0000
07C0
ENDCHAR
STARTCHAR uni1E35
ENCODING 7733
SWIDTH 648 0
DWIDTH 11 0
BBX 10 14 0 -2
BITMAP
1E00
0E00
0C00
1C00
1B80
1CC0
39C0
3180
7E00
7700
6340
E380
0000
3E00
ENDCHAR
STARTCHAR uni1E36
ENCODING 7734
SWIDTH 704 0
DWIDTH 12 0
BBX 12 15 -1 -3
BITMAP
3F80
0E00
0E00
0E00
1C00
1C00
1C00
1C10
3830
3820
38E0
FFE0
0000
0600
0600
ENDCHAR
STARTCHAR uni1E37
ENCODING 7735
SWIDTH 389 0
DWIDTH 6 0
BBX 6 15 0 -3
BITMAP
3C
1C
18
38
30
30
70
70
60
E0
E8
70
00
60
60
ENDCHAR
STARTCHAR uni1E38
ENCODING 7736
SWIDTH 704 0
DWIDTH 12 0
BBX 12 17 -1 -3
BITMAP
1F00
0000
3F80
0E00
0E00
0E00
1C00
1C00
1C00
1C10
3830
3820
38E0
FFE0
0000
0600
0600
ENDCHAR
STARTCHAR uni1E39
ENCODING 7737
SWIDTH 389 0
DWIDTH 6 0
BBX 6 17 0 -3
BITMAP
7C
00
3C
1C
18
38
30
30
70
70
60
E0
E8
70
00
60
60
ENDCHAR
STARTCHAR uni1E3A
ENCODING 7738
SWIDTH 704 0
DWIDTH 12 0
BBX 12 14 -1 -2
BITMAP
3F80
0E00
0E00
0E00
1C00
1C00
1C00
1C10
3830
3820
38E0
FFE0
0000
1F00
ENDCHAR
STARTCHAR uni1E3B
ENCODING 7739
SWIDTH 389 0
DWIDTH 6 0
BBX 6 14 0 -2
BITMAP
3C
1C
18
38
30
30
70
70
60
E0
E8
70
00
F8
ENDCHAR
STARTCHAR uni1E3C
ENCODING 7740
SWIDTH 704 0
DWIDTH 12 0
BBX 12 16 -1 -4
BITMAP
3F80
0E00
0E00
0E00
1C00
1C00
1C00
1C10
3830
3820
38E0
FFE0
0000
0600
0F00
1980
ENDCHAR
STARTCHAR uni1E3D
ENCODING 7741
SWIDTH 389 0
DWIDTH 6 0
BBX 7 16 -1 -4
BITMAP
1E
0E
0C
1C
18
18
38
38
30
70
74
38
00
30
78
CC
ENDCHAR
STARTCHAR uni1E3E
ENCODING 7742
SWIDTH 944 0
DWIDTH 16 0
BBX 19 16 -2 0
BITMAP
000C00
001800
002000
000000
1F07E0
070780
070F80
070F80
0F9700
0B9700
0BA700
19E700
11CE00
118E00
318E00
FD3F80
ENDCHAR
STARTCHAR uni1E3F
ENCODING 7743
SWIDTH 944 0
DWIDTH 15 0
BBX 15 12 -1 0
BITMAP
0060
00C0
0100
0000
739C
35EE
39CE
318C
739C
6318
633A
E71C
ENDCHAR
STARTCHAR uni1E40
ENCODING 7744
SWIDTH 944 0
DWIDTH 16 0
BBX 19 15 -2 0
BITMAP
003000
003000
000000
1F07E0
070780
070F80
070F80
0F9700
0B9700
0BA700
19E700
11CE00
118E00
318E00
FD3F80
ENDCHAR
STARTCHAR uni1E41
ENCODING 7745
SWIDTH 944 0
DWIDTH 15 0
BBX 15 11 -1 0
BITMAP
0180
0180
0000
739C
35EE
39CE
318C
739C
6318
633A
E71C
ENDCHAR
STARTCHAR uni1E42
ENCODING 7746
SWIDTH 944 0
DWIDTH 16 0
BBX 19 15 -2 -3
BITMAP
1F07E0
070780
070F80
070F80
0F9700
0B9700
0BA700
19E700
11CE00
118E00
318E00
FD3F80
000000
00C000
00C000
ENDCHAR
STARTCHAR uni1E43
ENCODING 7747
SWIDTH 944 0
DWIDTH 15 0
BBX 15 11 -1 -3
BITMAP
739C
35EE
39CE
318C
739C
6318
633A
E71C
0000
0300
0300
ENDCHAR
STARTCHAR uni1E44
ENCODING 7748
SWIDTH 852 0
DWIDTH 14 0
BBX 16 15 -1 0
BITMAP
0180
0180
0000
3E1F
0F04
0F04
0B8C
1B88
11C8
11D8
10F0
30F0
2070
2060
F820
ENDCHAR
STARTCHAR uni1E45
ENCODING 7749
SWIDTH 685 0
DWIDTH 11 0
BBX 10 11 0 0
BITMAP
0C00
0C00
0000
7380
35C0
39C0
7180
7380
6300
E740
E380
ENDCHAR
STARTCHAR uni1E46
ENCODING 7750
SWIDTH 852 0
DWIDTH 14 0
BBX 16 15 -1 -3
BITMAP
3E1F
0F04
0F04
0B8C
1B88
11C8
11D8
10F0
30F0
2070
2060
F820
0000
0300
0300
ENDCHAR
STARTCHAR uni1E47
ENCODING 7751
SWIDTH 685 0
DWIDTH 11 0
BBX 10 11 0 -3
BITMAP
7380
35C0
39C0
7180
7380
6300
E740
E380
0000
0C00
0C00
ENDCHAR
STARTCHAR uni1E48
ENCODING 7752
SWIDTH 852 0
DWIDTH 14 0
BBX 16 14 -1 -2
BITMAP
3E1F
0F04
0F04
0B8C
1B88
11C8
11D8
10F0
30F0
2070
2060
F820
0000
07C0
ENDCHAR
STARTCHAR uni1E49
ENCODING 7753
SWIDTH 685 0
DWIDTH 11 0
BBX 10 10 0 -2
BITMAP
7380
35C0
39C0
7180
7380
6300
E740
E380
0000
3E00
ENDCHAR
STARTCHAR uni1E4A
ENCODING 7754
SWIDTH 852 0
DWIDTH 14 0
BBX 16 16 -1 -4
BITMAP
3E1F
0F04
0F04
0B8C
1B88
11C8
11D8
10F0
30F0
2070
2060
F820
0000
0300
0780
0CC0
ENDCHAR
STARTCHAR uni1E4B
ENCODING 7755
SWIDTH 685 0
DWIDTH 11 0
BBX 10 12 0 -4
BITMAP
7380
35C0
39C0
7180
7380
6300
E740
E380
0000
0C00
1E00
3300
ENDCHAR
STARTCHAR uni1E4C
ENCODING 7756
SWIDTH 833 0
DWIDTH 14 0
BBX 13 19 1 0
BITMAP
00C0
0180
0200
0000
03A0
05C0
0000
07C0
1C70
3830
7038
7038
E038
E038
E070
E070
60E0
71C0
1F00
ENDCHAR
STARTCHAR uni1E4D
ENCODING 7757
SWIDTH 574 0
DWIDTH 10 0
BBX 9 15 0 0
BITMAP
0300
0600
0800
0000
1D00
2E00
0000
1E00
7300
6380
E180
C380
E300
6700
3C00
ENDCHAR
STARTCHAR uni1E4E
ENCODING 7758
SWIDTH 833 0
DWIDTH 14 0
BBX 13 18 1 0
BITMAP
06C0
06C0
0000
03A0
05C0
0000
07C0
1C70
3830
7038
7038
E038
E038
E070
E070
60E0
71C0
1F00
ENDCHAR
STARTCHAR uni1E4F
ENCODING 7759
SWIDTH 574 0
DWIDTH 10 0
BBX 9 14 0 0
BITMAP
3600
3600
0000
1D00
2E00
0000
1E00
7300
6380
E180
C380
E300
6700
3C00
ENDCHAR
STARTCHAR uni1E50
ENCODING 7760
SWIDTH 833 0
DWIDTH 14 0
BBX 13 18 1 0
BITMAP
0C00
0600
0100
0000
0F80
0000
07C0
1C70
3830
7038
7038
E038
E038
E070
E070
60E0
71C0
1F00
ENDCHAR
STARTCHAR uni1E51
ENCODING 7761
SWIDTH 574 0
DWIDTH 10 0
BBX 9 14 0 0
BITMAP
3000
1800
0400
0000
3E00
0000
1E00
7300
6380
E180
C380
E300
6700
3C00
ENDCHAR
STARTCHAR uni1E52
ENCODING 7762
SWIDTH 833 0
DWIDTH 14 0
BBX 13 18 1 0
BITMAP
00C0
0180
0200
0000
0F80
0000
07C0
1C70
3830
7038
7038
E038
E038
E070
E070
60E0
71C0
1F00
ENDCHAR
STARTCHAR uni1E53
ENCODING 7763
SWIDTH 574 0
DWIDTH 10 0
BBX 9 14 0 0
BITMAP
0300
0600
0800
0000
3E00
0000
1E00
7300
6380
E180
C380
E300
6700
3C00
ENDCHAR
STARTCHAR uni1E54
ENCODING 7764
SWIDTH 741 0
DWIDTH 12 0
BBX 13 16 -1 0
BITMAP
00C0
0180
0200
0000
3FF0
0E38
0E18
0E38
1C38
1C70
1FC0
1C00
3800
3800
3800
FE00
ENDCHAR
STARTCHAR uni1E55
ENCODING 7765
SWIDTH 648 0
DWIDTH 11 0
BBX 11 15 -1 -3
BITMAP
0180
0300
0400
0000
3DC0
1EE0
1C60
1860
38E0
38C0
3DC0
7700
6000
6000
F000
ENDCHAR
STARTCHAR uni1E56
ENCODING 7766
SWIDTH 741 0
DWIDTH 12 0
BBX 13 15 -1 0
BITMAP
0300
0300
0000
3FF0
0E38
0E18
0E38
1C38
1C70
1FC0
1C00
3800
3800
3800
FE00
ENDCHAR
STARTCHAR uni1E57
ENCODING 7767
SWIDTH 648 0
DWIDTH 11 0
BBX 11 14 -1 -3
BITMAP
0600
0600
0000
3DC0
1EE0
1C60
1860
38E0
38C0
3DC0
7700
6000
6000
F000
ENDCHAR
STARTCHAR uni1E58
ENCODING 7768
SWIDTH 796 0
DWIDTH 14 0
BBX 14 15 -1 0
BITMAP
0180
0180
0000
3FF8
0E1C
0E1C
0E3C
1C78
1FE0
1C60
1C70
38F0
38F4
38E4
FE78
ENDCHAR
STARTCHAR uni1E59
ENCODING 7769
SWIDTH 519 0
DWIDTH 9 0
BBX 9 11 0 0
BITMAP
0C00
0C00
0000
3B80
1D80
3980
3800
3000
7000
6000
E000
ENDCHAR
STARTCHAR uni1E5A
ENCODING 7770
SWIDTH 796 0
DWIDTH 14 0
BBX 14 15 -1 -3
BITMAP
3FF8
0E1C
0E1C
0E3C
1C78
1FE0
1C60
1C70
38F0
38F4
38E4
FE78
0000
0300
0300
ENDCHAR
STARTCHAR uni1E5B
ENCODING 7771
SWIDTH 519 0
DWIDTH 9 0
BBX 9 11 0 -3
BITMAP
3B80
1D80
3980
3800
3000
7000
6000
E000
0000
3000
3000
ENDCHAR
STARTCHAR uni1E5C
ENCODING 7772
SWIDTH 796 0
DWIDTH 14 0
BBX 14 17 -1 -3
BITMAP
03E0
0000
3FF8
0E1C
0E1C
0E3C
1C78
1FE0
1C60
1C70
38F0
38F4
38E4
FE78
0000
0300
0300
ENDCHAR
STARTCHAR uni1E5D
ENCODING 7773
SWIDTH 519 0
DWIDTH 9 0
BBX 9 13 0 -3
BITMAP
1F00
0000
3B80
1D80
3980
3800
3000
7000
6000
E000
0000
3000
3000
ENDCHAR
STARTCHAR uni1E5E
ENCODING 7774
SWIDTH 796 0
DWIDTH 14 0
BBX 14 14 -1 -2
BITMAP
3FF8
0E1C
0E1C
0E3C
1C78
1FE0
1C60
1C70
38F0
38F4
38E4
FE78
0000
07C0
ENDCHAR
STARTCHAR uni1E5F
ENCODING 7775
SWIDTH 519 0
DWIDTH 9 0
BBX 9 10 0 -2
BITMAP
3B80
1D80
3980
3800
3000
7000
6000
E000
0000
F800
ENDCHAR
STARTCHAR uni1E60
ENCODING 7776
SWIDTH 685 0
DWIDTH 11 0
BBX 11 15 0 0
BITMAP
0600
0600
0000
0FA0
18C0
30C0
3040
3C00
3F80
1FC0
43C0
40C0
60C0
F180
9F00
ENDCHAR
STARTCHAR uni1E61
ENCODING 7777
SWIDTH 481 0
DWIDTH 8 0
BBX 8 11 0 0
BITMAP
18
18
00
1E
73
63
7C
3E
C6
CE
78
ENDCHAR
STARTCHAR uni1E62
ENCODING 7778
SWIDTH 685 0
DWIDTH 11 0
BBX 11 15 0 -3
BITMAP
0FA0
18C0
30C0
3040
3C00
3F80
1FC0
43C0
40C0
60C0
F180
9F00
0000
0C00
0C00
ENDCHAR
STARTCHAR uni1E63
ENCODING 7779
SWIDTH 481 0
DWIDTH 8 0
BBX 8 11 0 -3
BITMAP
1E
73
63
7C
3E
C6
CE
78
00
18
18
ENDCHAR
STARTCHAR uni1E64
ENCODING 7780
SWIDTH 685 0
DWIDTH 11 0
BBX 11 19 0 0
BITMAP
0300
0300
0000
0180
0300
0400
0000
0FA0
18C0
30C0
3040
3C00
3F80
1FC0
43C0
40C0
60C0
F180
9F00
ENDCHAR
STARTCHAR uni1E65
ENCODING 7781
SWIDTH 481 0
DWIDTH 8 0
BBX 8 15 0 0
BITMAP
0C
0C
00
06
0C
10
00
1E
73
63
7C
3E
C6
CE
78
ENDCHAR
STARTCHAR uni1E66
ENCODING 7782
SWIDTH 685 0
DWIDTH 11 0
BBX 11 16 -1 0
BITMAP
0300
0300
0000
0CC0
0780
0300
0000
0F60
19C0
3040
3E00
1F80
47C0
60C0
F180
9F00
ENDCHAR
STARTCHAR uni1E67
ENCODING 7783
SWIDTH 481 0
DWIDTH 8 0
BBX 8 15 0 0
BITMAP
0C
0C
00
33
1E
0C
00
1E
73
63
78
1E
C6
CE
78
ENDCHAR
STARTCHAR uni1E68
ENCODING 7784
SWIDTH 685 0
DWIDTH 11 0
BBX 11 18 0 -3
BITMAP
0600
0600
0000
0FA0
18C0
30C0
3040
3C00
3F80
1FC0
43C0
40C0
60C0
F180
9F00
0000
0C00
0C00
ENDCHAR
STARTCHAR uni1E69
ENCODING 7785
SWIDTH 481 0
DWIDTH 8 0
BBX 8 14 0 -3
BITMAP
18
18
00
1E
73
63
7C
3E
C6
CE
78
00
18
18
ENDCHAR
STARTCHAR uni1E6A
ENCODING 7786
SWIDTH 722 0
DWIDTH 12 0
BBX 13 15 0 0
BITMAP
0300
0300
0000
7FF8
6738
C710
8710
8E10
0E00
0E00
0E00
1C00
1C00
1C00
7F00
ENDCHAR
STARTCHAR uni1E6B
ENCODING 7787
SWIDTH 407 0
DWIDTH 7 0
BBX 6 14 1 0
BITMAP
30
30
00
18
18
30
FC
70
60
60
E0
C8
D0
E0
ENDCHAR
STARTCHAR uni1E6C
ENCODING 7788
SWIDTH 722 0
DWIDTH 12 0
BBX 13 15 0 -3
BITMAP
7FF8
6738
C710
8710
8E10
0E00
0E00
0E00
1C00
1C00
1C00
7F00
0000
0C00
0C00
ENDCHAR
STARTCHAR uni1E6D
ENCODING 7789
SWIDTH 407 0
DWIDTH 7 0
BBX 6 14 1 -3
BITMAP
18
18
30
FC
70
60
60
E0
C8
D0
E0
00
60
60
ENDCHAR
STARTCHAR uni1E6E
ENCODING 7790
SWIDTH 722 0
DWIDTH 12 0
BBX 13 14 0 -2
BITMAP
7FF8
6738
C710
8710
8E10
0E00
0E00
0E00
1C00
1C00
1C00
7F00
0000
1F00
ENDCHAR
STARTCHAR uni1E6F
ENCODING 7791
SWIDTH 407 0
DWIDTH 7 0
BBX 6 13 1 -2
BITMAP
18
18
30
FC
70
60
60
E0
C8
D0
E0
00
F8
ENDCHAR
STARTCHAR uni1E70
ENCODING 7792
SWIDTH 722 0
DWIDTH 12 0
BBX 13 16 0 -4
BITMAP
7FF8
6738
C710
8710
8E10
0E00
0E00
0E00
1C00
1C00
1C00
7F00
0000
0C00
1E00
3300
ENDCHAR
STARTCHAR uni1E71
ENCODING 7793
SWIDTH 407 0
DWIDTH 7 0
BBX 7 15 0 -4
BITMAP
0C
0C
18
7E
38
30
30
70
64
68
70
00
30
78
CC
ENDCHAR
STARTCHAR uni1E72
ENCODING 7794
SWIDTH 833 0
DWIDTH 14 0
BBX 14 15 1 -3
BITMAP
FEFC
3830
3830
7020
7020
7060
7040
E040
E040
E0C0
7180
3E00
0000
1B00
1B00
ENDCHAR
STARTCHAR uni1E73
ENCODING 7795
SWIDTH 685 0
DWIDTH 11 0
BBX 10 11 0 -3
BITMAP
79C0
39C0
3180
7380
6300
E700
EB40
7380
0000
3600
3600
ENDCHAR
STARTCHAR uni1E74
ENCODING 7796
SWIDTH 833 0
DWIDTH 14 0
BBX 14 15 1 -3
BITMAP
FEFC
3830
3830
7020
7020
7060
7040
E040
E040
E0C0
7180
3E00
0000
1D00
2E00
ENDCHAR
STARTCHAR uni1E75
ENCODING 7797
SWIDTH 685 0
DWIDTH 11 0
BBX 10 11 0 -3
BITMAP
79C0
39C0
3180
7380
6300
E700
EB40
7380
0000
1D00
2E00
ENDCHAR
STARTCHAR uni1E76
ENCODING 7798
SWIDTH 833 0
DWIDTH 14 0
BBX 14 16 1 -4
BITMAP
FEFC
3830
3830
7020
7020
7060
7040
E040
E040
E0C0
7180
3E00
0000
0C00
1E00
3300
ENDCHAR
STARTCHAR uni1E77
ENCODING 7799
SWIDTH 685 0
DWIDTH 11 0
BBX 10 12 0 -4
BITMAP
79C0
39C0
3180
7380
6300
E700
EB40
7380
0000
0C00
1E00
3300
ENDCHAR
STARTCHAR uni1E78
ENCODING 7800
SWIDTH 833 0
DWIDTH 14 0
BBX 14 19 1 0
BITMAP
00C0
0180
0200
0000
0740
0B80
0000
FEFC
3830
3830
7020
7020
7060
7040
E040
E040
E0C0
7180
3E00
ENDCHAR
STARTCHAR uni1E79
ENCODING 7801
SWIDTH 685 0
DWIDTH 11 0
BBX 10 15 0 0
BITMAP
0180
0300
0400
0000
0E80
1700
0000
79C0
39C0
3180
7380
6300
E700
EB40
7380
ENDCHAR
STARTCHAR uni1E7A
ENCODING 7802
SWIDTH 833 0
DWIDTH 14 0
BBX 14 17 1 0
BITMAP
0D80
0D80
0000
0F80
0000
FEFC
3830
3830
7020
7020
7060
7040
E040
E040
E0C0
7180
3E00
ENDCHAR
STARTCHAR uni1E7B
ENCODING 7803
SWIDTH 685 0
DWIDTH 11 0
BBX 10 13 0 0
BITMAP
1B00
1B00
0000
1F00
0000
79C0
39C0
3180
7380
6300
E700
EB40
7380
ENDCHAR
STARTCHAR uni1E7C
ENCODING 7804
SWIDTH 741 0
DWIDTH 12 0
BBX 14 15 0 0
BITMAP
0740
0B80
0000
FEFC
3830
3860
3840
1CC0
1C80
1D80
1D00
0E00
0E00
0C00
0C00
ENDCHAR
STARTCHAR uni1E7D
ENCODING 7805
SWIDTH 556 0
DWIDTH 9 0
BBX 7 11 1 0
BITMAP
3A
5C
00
F6
66
62
E6
C6
C4
CC
78
ENDCHAR
STARTCHAR uni1E7E
ENCODING 7806
SWIDTH 741 0
DWIDTH 12 0
BBX 14 15 0 -3
BITMAP
FEFC
3830
3860
3840
1CC0
1C80
1D80
1D00
0E00
0E00
0C00
0C00
0000
0600
0600
ENDCHAR
STARTCHAR uni1E7F
ENCODING 7807
SWIDTH 556 0
DWIDTH 9 0
BBX 7 11 1 -3
BITMAP
F6
66
62
E6
C6
C4
CC
78
00
30
30
ENDCHAR
STARTCHAR Wgrave
ENCODING 7808
SWIDTH 944 0
DWIDTH 16 0
BBX 18 16 0 0
BITMAP
030000
018000
004000
000000
FDF7C0
38E300
38E200
38E600
39E400
39EC00
1A6800
1E7800
1C7000
1C7000
186000
186000
ENDCHAR
STARTCHAR wgrave
ENCODING 7809
SWIDTH 833 0
DWIDTH 14 0
BBX 13 12 0 0
BITMAP
0C00
0600
0100
0000
79D8
39D8
3188
7398
6710
E730
EB60
73C0
ENDCHAR
STARTCHAR Wacute
ENCODING 7810
SWIDTH 944 0
DWIDTH 16 0
BBX 18 16 0 0
BITMAP
003000
006000
008000
000000
FDF7C0
38E300
38E200
38E600
39E400
39EC00
1A6800
1E7800
1C7000
1C7000
186000
186000
ENDCHAR
STARTCHAR wacute
ENCODING 7811
SWIDTH 833 0
DWIDTH 14 0
BBX 13 12 0 0
BITMAP
00C0
0180
0200
0000
79D8
39D8
3188
7398
6710
E730
EB60
73C0
ENDCHAR
STARTCHAR Wdieresis
ENCODING 7812
SWIDTH 944 0
DWIDTH 16 0
BBX 18 15 0 0
BITMAP
036000
036000
000000
FDF7C0
38E300
38E200
38E600
39E400
39EC00
1A6800
1E7800
1C7000
1C7000
186000
186000
ENDCHAR
STARTCHAR wdieresis
ENCODING 7813
SWIDTH 833 0
DWIDTH 14 0
BBX 13 11 0 0
BITMAP
0D80
0D80
0000
79D8
39D8
3188
7398
6710
E730
EB60
73C0
ENDCHAR
STARTCHAR uni1E86
ENCODING 7814
SWIDTH 944 0
DWIDTH 16 0
BBX 18 15 0 0
BITMAP
00C000
00C000
000000
FDF7C0
38E300
38E200
38E600
39E400
39EC00
1A6800
1E7800
1C7000
1C7000
186000
186000
ENDCHAR
STARTCHAR uni1E87
ENCODING 7815
SWIDTH 833 0
DWIDTH 14 0
BBX 13 11 0 0
BITMAP
0300
0300
0000
79D8
39D8
3188
7398
6710
E730
EB60
73C0
ENDCHAR
STARTCHAR uni1E88
ENCODING 7816
SWIDTH 944 0
DWIDTH 16 0
BBX 18 15 0 -3
BITMAP
FDF7C0
38E300
38E200
38E600
39E400
39EC00
1A6800
1E7800
1C7000
1C7000
186000
186000
000000
018000
018000
ENDCHAR
STARTCHAR uni1E89
ENCODING 7817
SWIDTH 833 0
DWIDTH 14 0
BBX 13 11 0 -3
BITMAP
79D8
39D8
3188
7398
6710
E730
EB60
73C0
0000
0600
0600
ENDCHAR
STARTCHAR uni1E8A
ENCODING 7818
SWIDTH 741 0
DWIDTH 12 0
BBX 15 15 -2 0
BITMAP
0180
0180
0000
3FBE
0E18
0E30
0760
07C0
0380
0380
07C0
0DC0
18E0
30E0
FBF8
ENDCHAR
STARTCHAR uni1E8B
ENCODING 7819
SWIDTH 574 0
DWIDTH 9 0
BBX 10 11 -1 0
BITMAP
0C00
0C00
0000
39C0
5AC0
1E00
0C00
0C00
1E00
D680
E700
ENDCHAR
STARTCHAR uni1E8C
ENCODING 7820
SWIDTH 741 0
DWIDTH 12 0
BBX 15 15 -2 0
BITMAP
06C0
06C0
0000
3FBE
0E18
0E30
0760
07C0
0380
0380
07C0
0DC0
18E0
30E0
FBF8
ENDCHAR
STARTCHAR uni1E8D
ENCODING 7821
SWIDTH 574 0
DWIDTH 9 0
BBX 10 11 -1 0
BITMAP
1B00
1B00
0000
39C0
5AC0
1E00
0C00
0C00
1E00
D680
E700
ENDCHAR
STARTCHAR uni1E8E
ENCODING 7822
SWIDTH 704 0
DWIDTH 12 0
BBX 13 15 0 0
BITMAP
0600
0600
0000
FEF8
3830
3860
1CC0
1D80
1F00
0E00
0E00
1C00
1C00
1C00
7F00
ENDCHAR
STARTCHAR uni1E8F
ENCODING 7823
SWIDTH 519 0
DWIDTH 9 0
BBX 9 14 -1 -3
BITMAP
0C00
0C00
0000
3180
7980
B880
1D80
1D00
0E00
0C00
0C00
C800
D000
6000
ENDCHAR
STARTCHAR uni1E90
ENCODING 7824
SWIDTH 704 0
DWIDTH 12 0
BBX 13 16 -1 0
BITMAP
0300
0780
0CC0
0000
1FF8
1CF0
30E0
21C0
0380
0700
0F00
1E10
1C30
3860
71E0
FFE0
ENDCHAR
STARTCHAR uni1E91
ENCODING 7825
SWIDTH 519 0
DWIDTH 9 0
BBX 8 12 0 0
BITMAP
18
3C
66
00
39
7F
46
0C
38
61
FE
9C
ENDCHAR
STARTCHAR uni1E92
ENCODING 7826
SWIDTH 704 0
DWIDTH 12 0
BBX 13 15 -1 -3
BITMAP
1FF8
1CF0
30E0
21C0
0380
0700
0F00
1E10
1C30
3860
71E0
FFE0
0000
0600
0600
ENDCHAR
STARTCHAR uni1E93
ENCODING 7827
SWIDTH 519 0
DWIDTH 9 0
BBX 8 11 0 -3
BITMAP
39
7F
46
0C
38
61
FE
9C
00
18
18
ENDCHAR
STARTCHAR uni1E94
ENCODING 7828
SWIDTH 704 0
DWIDTH 12 0
BBX 13 14 -1 -2
BITMAP
1FF8
1CF0
30E0
21C0
0380
0700
0F00
1E10
1C30
3860
71E0
FFE0
0000
0F80
ENDCHAR
STARTCHAR uni1E95
ENCODING 7829
SWIDTH 519 0
DWIDTH 9 0
BBX 8 10 0 -2
BITMAP
39
7F
46
0C
38
61
FE
9C
00
7C
ENDCHAR
STARTCHAR uni1E96
ENCODING 7830
SWIDTH 685 0
DWIDTH 11 0
BBX 10 14 0 -2
BITMAP
3C00
1C00
1800
3800
3380
35C0
39C0
7980
7380
6300
E740
E380
0000
3E00
ENDCHAR
STARTCHAR uni1E97
ENCODING 7831
SWIDTH 407 0
DWIDTH 7 0
BBX 6 14 1 0
BITMAP
6C
6C
00
18
18
30
FC
70
60
60
E0
C8
D0
E0
ENDCHAR
STARTCHAR uni1E98
ENCODING 7832
SWIDTH 833 0
DWIDTH 14 0
BBX 13 13 0 0
BITMAP
0300
0480
0480
0300
0000
79D8
39D8
3188
7398
6710
E730
EB60
73C0
ENDCHAR
STARTCHAR uni1E99
ENCODING 7833
SWIDTH 519 0
DWIDTH 9 0
BBX 9 16 -1 -3
BITMAP
0C00
1200
1200
0C00
0000
3180
7980
B880
1D80
1D00
0E00
0C00
0C00
C800
D000
6000
ENDCHAR
STARTCHAR uni1EA0
ENCODING 7840
SWIDTH 741 0
DWIDTH 12 0
BBX 13 15 -1 -3
BITMAP
0180
0180
0380
0380
05C0
0DC0
09C0
1FC0
30E0
20E0
60E0
FBF8
0000
0300
0300
ENDCHAR
STARTCHAR uni1EA1
ENCODING 7841
SWIDTH 667 0
DWIDTH 11 0
BBX 10 11 0 -3
BITMAP
1DC0
7780
6380
E380
C300
C700
EF40
7B80
0000
0C00
0C00
ENDCHAR
STARTCHAR uni1EA4
ENCODING 7844
SWIDTH 741 0
DWIDTH 12 0
BBX 13 20 -1 0
BITMAP
0060
00C0
0100
0000
0180
03C0
0660
0000
0180
0180
0380
0380
05C0
0DC0
09C0
1FC0
30E0
20E0
60E0
FBF8
ENDCHAR
STARTCHAR uni1EA5
ENCODING 7845
SWIDTH 667 0
DWIDTH 11 0
BBX 11 16 0 0
BITMAP
0180
0300
0400
0000
0600
0F00
1980
0000
1DC0
7780
6380
E380
C300
C720
EF40
7B80
ENDCHAR
STARTCHAR uni1EA6
ENCODING 7846
SWIDTH 741 0
DWIDTH 12 0
BBX 13 20 -1 0
BITMAP
0600
0300
0080
0000
0180
03C0
0660
0000
0180
0180
0380
0380
05C0
0DC0
09C0
1FC0
30E0
20E0
60E0
FBF8
ENDCHAR
STARTCHAR uni1EA7
ENCODING 7847
SWIDTH 667 0
DWIDTH 11 0
BBX 11 16 0 0
BITMAP
1800
0C00
0200
0000
0600
0F00
1980
0000
1DC0
7780
6380
E380
C300
C720
EF40
7B80
ENDCHAR
STARTCHAR uni1EAA
ENCODING 7850
SWIDTH 741 0
DWIDTH 12 0
BBX 13 19 -1 0
BITMAP
03A0
05C0
0000
0180
03C0
0660
0000
0180
0180
0380
0380
05C0
0DC0
09C0
1FC0
30E0
20E0
60E0
FBF8
ENDCHAR
STARTCHAR uni1EAB
ENCODING 7851
SWIDTH 667 0
DWIDTH 11 0
BBX 11 15 0 0
BITMAP
0E80
1700
0000
0600
0F00
1980
0000
1DC0
7780
6380
E380
C300
C720
EF40
7B80
ENDCHAR
STARTCHAR uni1EAC
ENCODING 7852
SWIDTH 741 0
DWIDTH 12 0
BBX 13 19 -1 -3
BITMAP
0300
0780
0CC0
0000
0180
0180
0380
0380
05C0
0DC0
09C0
1FC0
30E0
20E0
60E0
FBF8
0000
0300
0300
ENDCHAR
STARTCHAR uni1EAD
ENCODING 7853
SWIDTH 667 0
DWIDTH 11 0
BBX 10 15 0 -3
BITMAP
0C00
1E00
3300
0000
1DC0
7780
6380
E380
C300
C700
EF40
7B80
0000
0C00
0C00
ENDCHAR
STARTCHAR uni1EAE
ENCODING 7854
SWIDTH 741 0
DWIDTH 12 0
BBX 13 20 -1 0
BITMAP
00C0
0180
0200
0000
0440
0440
0380
0000
0180
0180
0380
0380
05C0
0DC0
09C0
1FC0
30E0
20E0
60E0
FBF8
ENDCHAR
STARTCHAR uni1EAF
ENCODING 7855
SWIDTH 667 0
DWIDTH 11 0
BBX 10 16 0 0
BITMAP
0300
0600
0800
0000
1100
1100
0E00
0000
1DC0
7780
6380
E380
C300
C700
EF40
7B80
ENDCHAR
STARTCHAR uni1EB0
ENCODING 7856
SWIDTH 741 0
DWIDTH 12 0
BBX 13 20 -1 0
BITMAP
0C00
0600
0100
0000
0440
0440
0380
0000
0180
0180
0380
0380
05C0
0DC0
09C0
1FC0
30E0
20E0
60E0
FBF8
ENDCHAR
STARTCHAR uni1EB1
ENCODING 7857
SWIDTH 667 0
DWIDTH 11 0
BBX 10 16 0 0
BITMAP
3000
1800
0400
0000
1100
1100
0E00
0000
1DC0
7780
6380
E380
C300
C700
EF40
7B80
ENDCHAR
STARTCHAR uni1EB4
ENCODING 7860
SWIDTH 741 0
DWIDTH 12 0
BBX 13 19 -1 0
BITMAP
0740
0B80
0000
0440
0440
0380
0000
0180
0180
0380
0380
05C0
0DC0
09C0
1FC0
30E0
20E0
60E0
FBF8
ENDCHAR
STARTCHAR uni1EB5
ENCODING 7861
SWIDTH 667 0
DWIDTH 11 0
BBX 10 15 0 0
BITMAP
0E80
1700
0000
1100
1100
0E00
0000
1DC0
7780
6380
E380
C300
C700
EF40
7B80
ENDCHAR
STARTCHAR uni1EB6
ENCODING 7862
SWIDTH 741 0
DWIDTH 12 0
BBX 13 19 -1 -3
BITMAP
0440
0440
0380
0000
0180
0180
0380
0380
05C0
0DC0
09C0
1FC0
30E0
20E0
60E0
FBF8
0000
0300
0300
ENDCHAR
STARTCHAR uni1EB7
ENCODING 7863
SWIDTH 667 0
DWIDTH 11 0
BBX 10 15 0 -3
BITMAP
1100
1100
0E00
0000
1DC0
7780
6380
E380
C300
C700
EF40
7B80
0000
0C00
0C00
ENDCHAR
STARTCHAR uni1EB8
ENCODING 7864
SWIDTH 741 0
DWIDTH 12 0
BBX 13 15 -1 -3
BITMAP
3FF8
0E18
0E10
0E50
1CC0
1F80
1D80
1C90
3830
3820
3860
FFE0
0000
0600
0600
ENDCHAR
STARTCHAR uni1EB9
ENCODING 7865
SWIDTH 519 0
DWIDTH 9 0
BBX 8 11 1 -3
BITMAP
1E
77
63
CE
FC
C0
E2
7C
00
30
30
ENDCHAR
STARTCHAR uni1EBC
ENCODING 7868
SWIDTH 741 0
DWIDTH 12 0
BBX 13 15 -1 0
BITMAP
0740
0B80
0000
3FF8
0E18
0E10
0E50
1CC0
1F80
1D80
1C90
3830
3820
3860
FFE0
ENDCHAR
STARTCHAR uni1EBD
ENCODING 7869
SWIDTH 519 0
DWIDTH 9 0
BBX 8 11 1 0
BITMAP
1D
2E
00
1E
77
63
CE
FC
C0
E2
7C
ENDCHAR
STARTCHAR uni1EBE
ENCODING 7870
SWIDTH 741 0
DWIDTH 12 0
BBX 13 20 -1 0
BITMAP
00C0
0180
0200
0000
0180
03C0
0660
0000
3FF8
0E18
0E10
0E50
1CC0
1F80
1D80
1C90
3830
3820
3860
FFE0
ENDCHAR
STARTCHAR uni1EBF
ENCODING 7871
SWIDTH 519 0
DWIDTH 9 0
BBX 8 16 1 0
BITMAP
03
06
08
00
0C
1E
33
00
1E
77
63
CE
FC
C0
E2
7C
ENDCHAR
STARTCHAR uni1EC0
ENCODING 7872
SWIDTH 741 0
DWIDTH 12 0
BBX 13 20 -1 0
BITMAP
0C00
0600
0100
0000
0180
03C0
0660
0000
3FF8
0E18
0E10
0E50
1CC0
1F80
1D80
1C90
3830
3820
3860
FFE0
ENDCHAR
STARTCHAR uni1EC1
ENCODING 7873
SWIDTH 519 0
DWIDTH 9 0
BBX 8 16 1 0
BITMAP
30
18
04
00
0C
1E
33
00
1E
77
63
CE
FC
C0
E2
7C
ENDCHAR
STARTCHAR uni1EC4
ENCODING 7876
SWIDTH 741 0
DWIDTH 12 0
BBX 13 19 -1 0
BITMAP
0740
0B80
0000
0180
03C0
0660
0000
3FF8
0E18
0E10
0E50
1CC0
1F80
1D80
1C90
3830
3820
3860
FFE0
ENDCHAR
STARTCHAR uni1EC5
ENCODING 7877
SWIDTH 519 0
DWIDTH 9 0
BBX 8 15 1 0
BITMAP
1D
2E
00
0C
1E
33
00
1E
77
63
CE
FC
C0
E2
7C
ENDCHAR
STARTCHAR uni1EC6
ENCODING 7878
SWIDTH 741 0
DWIDTH 12 0
BBX 13 19 -1 -3
BITMAP
0300
0780
0CC0
0000
3FF8
0E18
0E10
0E50
1CC0
1F80
1D80
1C90
3830
3820
3860
FFE0
0000
0600
0600
ENDCHAR
STARTCHAR uni1EC7
ENCODING 7879
SWIDTH 519 0
DWIDTH 9 0
BBX 8 15 1 -3
BITMAP
18
3C
66
00
1E
77
63
CE
FC
C0
E2
7C
00
30
30
ENDCHAR
STARTCHAR uni1ECA
ENCODING 7882
SWIDTH 444 0
DWIDTH 7 0
BBX 9 15 -1 -3
BITMAP
3F80
0E00
0E00
0E00
1C00
1C00
1C00
1C00
3800
3800
3800
FE00
0000
1800
1800
ENDCHAR
STARTCHAR uni1ECB
ENCODING 7883
SWIDTH 389 0
DWIDTH 6 0
BBX 6 15 0 -3
BITMAP
18
3C
18
00
78
38
30
70
70
E0
E8
70
00
60
60
ENDCHAR
STARTCHAR uni1ECC
ENCODING 7884
SWIDTH 833 0
DWIDTH 14 0
BBX 13 15 1 -3
BITMAP
07C0
1C70
3830
7038
7038
E038
E038
E070
E070
60E0
71C0
1F00
0000
0600
0600
ENDCHAR
STARTCHAR uni1ECD
ENCODING 7885
SWIDTH 574 0
DWIDTH 10 0
BBX 9 11 0 -3
BITMAP
1E00
7300
6380
E180
C380
E300
6700
3C00
0000
1800
1800
ENDCHAR
STARTCHAR uni1ED0
ENCODING 7888
SWIDTH 833 0
DWIDTH 14 0
BBX 13 20 1 0
BITMAP
00C0
0180
0200
0000
0180
03C0
0660
0000
07C0
1C70
3830
7038
7038
E038
E038
E070
E070
60E0
71C0
1F00
ENDCHAR
STARTCHAR uni1ED1
ENCODING 7889
SWIDTH 574 0
DWIDTH 10 0
BBX 9 16 0 0
BITMAP
0300
0600
0800
0000
0C00
1E00
3300
0000
1E00
7300
6380
E180
C380
E300
6700
3C00
ENDCHAR
STARTCHAR uni1ED2
ENCODING 7890
SWIDTH 833 0
DWIDTH 14 0
BBX 13 20 1 0
BITMAP
0C00
0600
0100
0000
0180
03C0
0660
0000
07C0
1C70
3830
7038
7038
E038
E038
E070
E070
60E0
71C0
1F00
ENDCHAR
STARTCHAR uni1ED3
ENCODING 7891
SWIDTH 574 0
DWIDTH 10 0
BBX 9 16 0 0
BITMAP
3000
1800
0400
0000
0C00
1E00
3300
0000
1E00
7300
6380
E180
C380
E300
6700
3C00
ENDCHAR
STARTCHAR uni1ED6
ENCODING 7894
SWIDTH 833 0
DWIDTH 14 0
BBX 13 19 1 0
BITMAP
03A0
05C0
0000
0180
03C0
0660
0000
07C0
1C70
3830
7038
7038
E038
E038
E070
E070
60E0
71C0
1F00
ENDCHAR
STARTCHAR uni1ED7
ENCODING 7895
SWIDTH 574 0
DWIDTH 10 0
BBX 9 15 0 0
BITMAP
1D00
2E00
0000
0C00
1E00
3300
0000
1E00
7300
6380
E180
C380
E300
6700
3C00
ENDCHAR
STARTCHAR uni1ED8
ENCODING 7896
SWIDTH 833 0
DWIDTH 14 0
BBX 13 19 1 -3
BITMAP
0300
0780
0CC0
0000
07C0
1C70
3830
7038
7038
E038
E038
E070
E070
60E0
71C0
1F00
0000
0600
0600
ENDCHAR
STARTCHAR uni1ED9
ENCODING 7897
SWIDTH 574 0
DWIDTH 10 0
BBX 9 15 0 -3
BITMAP
0C00
1E00
3300
0000
1E00
7300
6380
E180
C380
E300
6700
3C00
0000
1800
1800
ENDCHAR
STARTCHAR uni1EDA
ENCODING 7898
SWIDTH 833 0
DWIDTH 14 0
BBX 16 16 1 0
BITMAP
0030
0060
0080
0000
07C6
1C7F
3837
703A
703C
E038
E038
E070
E070
60E0
71C0
1F00
ENDCHAR
STARTCHAR uni1EDB
ENCODING 7899
SWIDTH 574 0
DWIDTH 10 0
BBX 12 12 0 0
BITMAP
00C0
0180
0200
0000
1E60
73F0
63F0
E1A0
C3C0
E380
6700
3C00
ENDCHAR
STARTCHAR uni1EDC
ENCODING 7900
SWIDTH 833 0
DWIDTH 14 0
BBX 16 16 1 0
BITMAP
0300
0180
0040
0000
07C6
1C7F
3837
703A
703C
E038
E038
E070
E070
60E0
71C0
1F00
ENDCHAR
STARTCHAR uni1EDD
ENCODING 7901
SWIDTH 574 0
DWIDTH 10 0
BBX 12 12 0 0
BITMAP
0C00
0600
0100
0000
1E60
73F0
63F0
E1A0
C3C0
E380
6700
3C00
ENDCHAR
STARTCHAR uni1EE0
ENCODING 7904
SWIDTH 833 0
DWIDTH 14 0
BBX 16 15 1 0
BITMAP
01D0
02E0
0000
07C6
1C7F
3837
703A
703C
E038
E038
E070
E070
60E0
71C0
1F00
ENDCHAR
STARTCHAR uni1EE1
ENCODING 7905
SWIDTH 574 0
DWIDTH 10 0
BBX 12 11 0 0
BITMAP
0740
0B80
0000
1E60
73F0
63F0
E1A0
C3C0
E380
6700
3C00
ENDCHAR
STARTCHAR uni1EE2
ENCODING 7906
SWIDTH 833 0
DWIDTH 14 0
BBX 16 15 1 -3
BITMAP
07C6
1C7F
3837
703A
703C
E038
E038
E070
E070
60E0
71C0
1F00
0000
0300
0300
ENDCHAR
STARTCHAR uni1EE3
ENCODING 7907
SWIDTH 574 0
DWIDTH 10 0
BBX 12 11 0 -3
BITMAP
1E60
73F0
63F0
E1A0
C3C0
E380
6700
3C00
0000
0C00
0C00
ENDCHAR
STARTCHAR uni1EE4
ENCODING 7908
SWIDTH 833 0
DWIDTH 14 0
BBX 14 15 1 -3
BITMAP
FEFC
3830
3830
7020
7020
7060
7040
E040
E040
E0C0
7180
3E00
0000
0C00
0C00
ENDCHAR
STARTCHAR uni1EE5
ENCODING 7909
SWIDTH 685 0
DWIDTH 11 0
BBX 10 11 0 -3
BITMAP
79C0
39C0
3180
7380
6300
E700
EB40
7380
0000
0C00
0C00
ENDCHAR
STARTCHAR uni1EE8
ENCODING 7912
SWIDTH 833 0
DWIDTH 14 0
BBX 17 16 1 0
BITMAP
003000
006000
008000
000000
FEFF00
383780
383380
702100
702200
706400
704000
E04000
E04000
E0C000
718000
3E0000
ENDCHAR
STARTCHAR uni1EE9
ENCODING 7913
SWIDTH 685 0
DWIDTH 11 0
BBX 13 12 0 0
BITMAP
00C0
0180
0200
0000
79F0
39F8
31B8
7390
6320
E740
EB40
7380
ENDCHAR
STARTCHAR uni1EEA
ENCODING 7914
SWIDTH 833 0
DWIDTH 14 0
BBX 17 16 1 0
BITMAP
030000
018000
004000
000000
FEFF00
383780
383380
702100
702200
706400
704000
E04000
E04000
E0C000
718000
3E0000
ENDCHAR
STARTCHAR uni1EEB
ENCODING 7915
SWIDTH 685 0
DWIDTH 11 0
BBX 13 12 0 0
BITMAP
0C00
0600
0100
0000
79F0
39F8
31B8
7390
6320
E740
EB40
7380
ENDCHAR
STARTCHAR uni1EEE
ENCODING 7918
SWIDTH 833 0
DWIDTH 14 0
BBX 17 15 1 0
BITMAP
01D000
02E000
000000
FEFF00
383780
383380
702100
702200
706400
704000
E04000
E04000
E0C000
718000
3E0000
ENDCHAR
STARTCHAR uni1EEF
ENCODING 7919
SWIDTH 685 0
DWIDTH 11 0
BBX 13 11 0 0
BITMAP
0740
0B80
0000
79F0
39F8
31B8
7390
6320
E740
EB40
7380
ENDCHAR
STARTCHAR uni1EF0
ENCODING 7920
SWIDTH 833 0
DWIDTH 14 0
BBX 17 15 1 -3
BITMAP
FEFF00
383780
383380
702100
702200
706400
704000
E04000
E04000
E0C000
718000
3E0000
000000
060000
060000
ENDCHAR
STARTCHAR uni1EF1
ENCODING 7921
SWIDTH 685 0
DWIDTH 11 0
BBX 13 11 0 -3
BITMAP
79F0
39F8
31B8
7390
6320
E740
EB40
7380
0000
0C00
0C00
ENDCHAR
STARTCHAR Ygrave
ENCODING 7922
SWIDTH 704 0
DWIDTH 12 0
BBX 13 16 0 0
BITMAP
1800
0C00
0200
0000
FEF8
3830
3860
1CC0
1D80
1F00
0E00
0E00
1C00
1C00
1C00
7F00
ENDCHAR
STARTCHAR ygrave
ENCODING 7923
SWIDTH 519 0
DWIDTH 9 0
BBX 9 15 -1 -3
BITMAP
3000
1800
0400
0000
3180
7980
B880
1D80
1D00
0E00
0C00
0C00
C800
D000
6000
ENDCHAR
STARTCHAR uni1EF4
ENCODING 7924
SWIDTH 704 0
DWIDTH 12 0
BBX 13 15 0 -3
BITMAP
FEF8
3830
3860
1CC0
1D80
1F00
0E00
0E00
1C00
1C00
1C00
7F00
0000
0C00
0C00
ENDCHAR
STARTCHAR uni1EF5
ENCODING 7925
SWIDTH 519 0
DWIDTH 9 0
BBX 9 14 -1 -6
BITMAP
3180
7980
B880
1D80
1D00
0E00
0C00
0C00
C800
D000
6000
0000
3000
3000
ENDCHAR
STARTCHAR uni1EF8
ENCODING 7928
SWIDTH 704 0
DWIDTH 12 0
BBX 13 15 0 0
BITMAP
0740
0B80
0000
FEF8
3830
3860
1CC0
1D80
1F00
0E00
0E00
1C00
1C00
1C00
7F00
ENDCHAR
STARTCHAR uni1EF9
ENCODING 7929
SWIDTH 519 0
DWIDTH 9 0
BBX 9 14 -1 -3
BITMAP
1D00
2E00
0000
3180
7980
B880
1D80
1D00
0E00
0C00
0C00
C800
D000
6000
ENDCHAR
STARTCHAR uni2000
ENCODING 8192
SWIDTH 500 0
DWIDTH 8 0
BBX 1 1 0 0
BITMAP
00
ENDCHAR
STARTCHAR uni2001
ENCODING 8193
SWIDTH 1000 0
DWIDTH 17 0
BBX 1 1 0 0
BITMAP
00
ENDCHAR
STARTCHAR uni2002
ENCODING 8194
SWIDTH 500 0
DWIDTH 8 0
BBX 1 1 0 0
BITMAP
00
ENDCHAR
STARTCHAR uni2003
ENCODING 8195
SWIDTH 1000 0
DWIDTH 17 0
BBX 1 1 0 0
BITMAP
00
ENDCHAR
STARTCHAR uni2004
ENCODING 8196
SWIDTH 333 0
DWIDTH 6 0
BBX 1 1 0 0
BITMAP
00
ENDCHAR
STARTCHAR uni2005
ENCODING 8197
SWIDTH 250 0
DWIDTH 4 0
BBX 1 1 0 0
BITMAP
00
ENDCHAR
STARTCHAR uni2006
ENCODING 8198
SWIDTH 167 0
DWIDTH 3 0
BBX 1 1 0 0
BITMAP
00
ENDCHAR
STARTCHAR uni2007
ENCODING 8199
SWIDTH 574 0
DWIDTH 9 0
BBX 1 1 0 0
BITMAP
00
ENDCHAR
STARTCHAR uni2008
ENCODING 8200
SWIDTH 287 0
DWIDTH 5 0
BBX 1 1 0 0
BITMAP
00
ENDCHAR
STARTCHAR uni2009
ENCODING 8201
SWIDTH 200 0
DWIDTH 3 0
BBX 1 1 0 0
BITMAP
00
ENDCHAR
STARTCHAR uni200A
ENCODING 8202
SWIDTH 100 0
DWIDTH 2 0
BBX 1 1 0 0
BITMAP
00
ENDCHAR
STARTCHAR uni200B
ENCODING 8203
SWIDTH 0 0
DWIDTH 0 0
BBX 1 1 0 0
BITMAP
00
ENDCHAR
STARTCHAR uni2010
ENCODING 8208
SWIDTH 333 0
DWIDTH 5 0
BBX 4 2 0 3
BITMAP
F0
F0
ENDCHAR
STARTCHAR uni2011
ENCODING 8209
SWIDTH 333 0
DWIDTH 5 0
BBX 4 2 0 3
BITMAP
F0
F0
ENDCHAR
STARTCHAR figuredash
ENCODING 8210
SWIDTH 500 0
DWIDTH 8 0
BBX 8 2 0 3
BITMAP
FF
FF
ENDCHAR
STARTCHAR endash
ENCODING 8211
SWIDTH 500 0
DWIDTH 8 0
BBX 8 2 0 3
BITMAP
FF
FF
ENDCHAR
STARTCHAR emdash
ENCODING 8212
SWIDTH 1000 0
DWIDTH 16 0
BBX 16 2 0 3
BITMAP
FFFF
FFFF
ENDCHAR
STARTCHAR afii00208
ENCODING 8213
SWIDTH 1000 0
DWIDTH 16 0
BBX 16 2 0 3
BITMAP
FFFF
FFFF
ENDCHAR
STARTCHAR quoteleft
ENCODING 8216
SWIDTH 259 0
DWIDTH 4 0
BBX 4 6 0 6
BITMAP
10
20
40
E0
F0
60
ENDCHAR
STARTCHAR quoteright
ENCODING 8217
SWIDTH 259 0
DWIDTH 4 0
BBX 4 6 1 6
BITMAP
60
F0
70
20
40
80
ENDCHAR
STARTCHAR quotesinglbase
ENCODING 8218
SWIDTH 259 0
DWIDTH 4 0
BBX 4 6 -1 -3
BITMAP
60
F0
70
20
40
80
ENDCHAR
STARTCHAR quotereversed
ENCODING 8219
SWIDTH 259 0
DWIDTH 4 0
BBX 4 6 1 6
BITMAP
60
F0
E0
40
20
10
ENDCHAR
STARTCHAR quotedblleft
ENCODING 8220
SWIDTH 481 0
DWIDTH 8 0
BBX 8 6 0 6
BITMAP
11
22
44
EE
FF
66
ENDCHAR
STARTCHAR quotedblright
ENCODING 8221
SWIDTH 481 0
DWIDTH 8 0
BBX 8 6 1 6
BITMAP
66
FF
77
22
44
88
ENDCHAR
STARTCHAR quotedblbase
ENCODING 8222
SWIDTH 481 0
DWIDTH 8 0
BBX 8 6 -1 -3
BITMAP
66
FF
77
22
44
88
ENDCHAR
STARTCHAR uni201F
ENCODING 8223
SWIDTH 481 0
DWIDTH 8 0
BBX 8 6 1 6
BITMAP
66
FF
EE
44
22
11
ENDCHAR
STARTCHAR dagger
ENCODING 8224
SWIDTH 500 0
DWIDTH 8 0
BBX 8 15 0 -3
BITMAP
0C
0C
49
FF
92
10
30
30
30
20
20
60
40
40
40
ENDCHAR
STARTCHAR daggerdbl
ENCODING 8225
SWIDTH 500 0
DWIDTH 9 0
BBX 10 15 -1 -3
BITMAP
0300
0300
1240
3FC0
2280
0400
0C00
0C00
0C00
0800
5100
FF00
9200
3000
3000
ENDCHAR
STARTCHAR bullet
ENCODING 8226
SWIDTH 606 0
DWIDTH 10 0
BBX 5 5 2 3
BITMAP
70
F8
F8
F8
70
ENDCHAR
STARTCHAR ellipsis
ENCODING 8230
SWIDTH 1000 0
DWIDTH 18 0
BBX 16 3 0 0
BITMAP
6186
F3CF
6186
ENDCHAR
STARTCHAR perthousand
ENCODING 8240
SWIDTH 1167 0
DWIDTH 19 0
BBX 18 12 1 0
BITMAP
388000
778000
650000
C90000
CA0000
720000
04E380
05D740
099640
0B2C80
132C80
11C700
ENDCHAR
STARTCHAR guilsinglleft
ENCODING 8249
SWIDTH 278 0
DWIDTH 5 0
BBX 4 6 0 1
BITMAP
10
20
40
C0
40
20
ENDCHAR
STARTCHAR guilsinglright
ENCODING 8250
SWIDTH 278 0
DWIDTH 5 0
BBX 4 6 0 1
BITMAP
40
20
30
20
40
80
ENDCHAR
STARTCHAR fraction
ENCODING 8260
SWIDTH 167 0
DWIDTH 3 0
BBX 8 12 -2 0
BITMAP
01
02
02
04
08
08
10
10
20
40
40
80
ENDCHAR
STARTCHAR oneinferior
ENCODING 8321
SWIDTH 344 0
DWIDTH 6 0
BBX 6 7 0 -3
BITMAP
0C
7C
18
18
30
30
F8
ENDCHAR
STARTCHAR twoinferior
ENCODING 8322
SWIDTH 344 0
DWIDTH 6 0
BBX 6 7 0 -3
BITMAP
38
4C
6C
08
30
7C
F8
ENDCHAR
STARTCHAR threeinferior
ENCODING 8323
SWIDTH 344 0
DWIDTH 6 0
BBX 6 7 0 -3
BITMAP
38
6C
0C
30
18
D8
70
ENDCHAR
STARTCHAR uni20A5
ENCODING 8357
SWIDTH 944 0
DWIDTH 15 0
BBX 15 12 -1 -2
BITMAP
0040
00C0
739C
35EE
39CE
318C
739C
6318
633A
E71C
0600
0400
ENDCHAR
STARTCHAR uni20A6
ENCODING 8358
SWIDTH 852 0
DWIDTH 14 0
BBX 16 12 -1 0
BITMAP
3E1F
0F04
0F04
0FFC
1FF8
11C8
1FF8
1FF0
30F0
2070
2060
F820
ENDCHAR
STARTCHAR uni20A9
ENCODING 8361
SWIDTH 944 0
DWIDTH 16 0
BBX 18 12 0 0
BITMAP
FDF7C0
38E300
38E200
3FFE00
3FFC00
39EC00
1FF800
1FF800
1C7000
1C7000
186000
186000
ENDCHAR
STARTCHAR Euro
ENCODING 8364
SWIDTH 759 0
DWIDTH 13 0
BBX 14 12 -1 0
BITMAP
01F4
071C
0E08
FF08
FF08
3800
FF00
FF00
3808
1810
1C20
07C0
ENDCHAR
STARTCHAR uni20AD
ENCODING 8365
SWIDTH 778 0
DWIDTH 13 0
BBX 15 12 -1 0
BITMAP
3FBE
0E18
0E30
0E60
1CC0
FFFE
FFFE
1CE0
38E0
3870
3870
FDFC
ENDCHAR
STARTCHAR uni2103
ENCODING 8451
SWIDTH 1139 0
DWIDTH 20 0
BBX 18 12 2 0
BITMAP
701F40
D871C0
88E080
D9C080
71C080
038000
038000
038000
038080
018100
01C200
007C00
ENDCHAR
STARTCHAR uni2109
ENCODING 8457
SWIDTH 1084 0
DWIDTH 19 0
BBX 17 12 2 0
BITMAP
73FF80
D8E180
88E100
D8E500
71CC00
01F800
01D800
01C800
038000
038000
038000
0FE000
ENDCHAR
STARTCHAR trademark
ENCODING 8482
SWIDTH 950 0
DWIDTH 16 0
BBX 16 7 0 5
BITMAP
FFC7
92C6
10EA
10AA
10BA
1092
39D7
ENDCHAR
STARTCHAR uni212A
ENCODING 8490
SWIDTH 778 0
DWIDTH 13 0
BBX 15 12 -1 0
BITMAP
3FBE
0E18
0E30
0E60
1CC0
1FC0
1FC0
1CE0
38E0
3870
3870
FDFC
ENDCHAR
STARTCHAR uni212B
ENCODING 8491
SWIDTH 741 0
DWIDTH 12 0
BBX 13 16 -1 0
BITMAP
0180
0240
0240
0180
0180
0180
0380
0380
05C0
0DC0
09C0
1FC0
30E0
20E0
60E0
FBF8
ENDCHAR
STARTCHAR uni2132
ENCODING 8498
SWIDTH 704 0
DWIDTH 12 0
BBX 13 12 -1 0
BITMAP
03F8
00E0
00E0
00E0
09C0
0DC0
0FC0
19C0
5380
4380
C380
FFE0
ENDCHAR
STARTCHAR minus
ENCODING 8722
SWIDTH 606 0
DWIDTH 10 0
BBX 8 2 1 3
BITMAP
FF
FF
ENDCHAR
STARTCHAR fraction
ENCODING 8725
SWIDTH 167 0
DWIDTH 3 0
BBX 8 12 -2 0
BITMAP
01
02
02
04
08
08
10
10
20
40
40
80
ENDCHAR
STARTCHAR periodcentered
ENCODING 8729
SWIDTH 287 0
DWIDTH 5 0
BBX 4 3 0 3
BITMAP
60
F0
60
ENDCHAR
STARTCHAR uni2236
ENCODING 8758
SWIDTH 287 0
DWIDTH 5 0
BBX 5 8 0 0
BITMAP
30
78
30
00
00
60
F0
60
ENDCHAR
STARTCHAR uni2259
ENCODING 8793
SWIDTH 606 0
DWIDTH 10 0
BBX 8 9 1 2
BITMAP
18
3C
66
00
FF
FF
00
FF
FF
ENDCHAR
STARTCHAR uni225A
ENCODING 8794
SWIDTH 606 0
DWIDTH 10 0
BBX 8 9 1 2
BITMAP
66
3C
18
00
FF
FF
00
FF
FF
ENDCHAR
STARTCHAR notequal
ENCODING 8800
SWIDTH 606 0
DWIDTH 10 0
BBX 8 12 1 -1
BITMAP
02
06
04
04
FF
FF
08
FF
FF
10
30
20
ENDCHAR
STARTCHAR equivalence
ENCODING 8801
SWIDTH 606 0
DWIDTH 10 0
BBX 8 8 0 0
BITMAP
FF
FF
00
FF
FF
00
FF
FF
ENDCHAR
STARTCHAR uni2262
ENCODING 8802
SWIDTH 606 0
DWIDTH 10 0
BBX 8 12 0 -2
BITMAP
02
06
FF
FF
0C
FF
FF
18
FF
FF
30
20
ENDCHAR
STARTCHAR lessequal
ENCODING 8804
SWIDTH 606 0
DWIDTH 10 0
BBX 8 11 1 -3
BITMAP
03
0E
38
E0
E0
38
0E
03
00
FF
FF
ENDCHAR
STARTCHAR greaterequal
ENCODING 8805
SWIDTH 606 0
DWIDTH 10 0
BBX 8 11 1 -3
BITMAP
C0
70
1C
07
07
1C
70
C0
00
FF
FF
ENDCHAR
STARTCHAR uni226E
ENCODING 8814
SWIDTH 606 0
DWIDTH 10 0
BBX 8 12 1 -2
BITMAP
02
06
07
0E
3C
E8
E8
38
1E
13
30
20
ENDCHAR
STARTCHAR uni226F
ENCODING 8815
SWIDTH 606 0
DWIDTH 10 0
BBX 8 12 1 -2
BITMAP
02
06
C4
74
1C
0F
0F
1C
70
D0
30
20
ENDCHAR
STARTCHAR uni2270
ENCODING 8816
SWIDTH 606 0
DWIDTH 10 0
BBX 8 12 1 -3
BITMAP
02
07
0E
3C
EC
E8
38
1E
13
10
FF
FF
ENDCHAR
STARTCHAR uni2271
ENCODING 8817
SWIDTH 606 0
DWIDTH 10 0
BBX 8 12 1 -3
BITMAP
02
C6
74
1C
0F
0F
1C
78
D0
10
FF
FF
ENDCHAR
STARTCHAR fi
ENCODING -1
SWIDTH 685 0
DWIDTH 11 0
BBX 11 15 -1 -3
BITMAP
03C0
06E0
0CC0
0C00
7FC0
19C0
1980
1980
3B80
3320
3340
7380
6000
6000
E000
ENDCHAR
STARTCHAR fl
ENCODING -1
SWIDTH 685 0
DWIDTH 11 0
BBX 12 15 -1 -3
BITMAP
03B0
06E0
0CE0
0CE0
7FC0
19C0
1980
1980
3B80
3320
3340
7380
6000
6000
E000
ENDCHAR
ENDFONT
